<?xml version="1.0" encoding="UTF-8" standalone="no"?>
<!-- Created with Inkscape (http://www.inkscape.org/) -->

<svg
   xmlns:dc="http://purl.org/dc/elements/1.1/"
   xmlns:cc="http://creativecommons.org/ns#"
   xmlns:rdf="http://www.w3.org/1999/02/22-rdf-syntax-ns#"
   xmlns:svg="http://www.w3.org/2000/svg"
   xmlns="http://www.w3.org/2000/svg"
   xmlns:sodipodi="http://sodipodi.sourceforge.net/DTD/sodipodi-0.dtd"
   xmlns:inkscape="http://www.inkscape.org/namespaces/inkscape"
   id="svg7501"
   version="1.1"
   inkscape:version="0.48.4 r9939"
   width="481"
   height="507"
   sodipodi:docname="accidental-overlap.png">
  <metadata
     id="metadata7507">
    <rdf:RDF>
      <cc:Work
         rdf:about="">
        <dc:format>image/svg+xml</dc:format>
        <dc:type
           rdf:resource="http://purl.org/dc/dcmitype/StillImage" />
        <dc:title></dc:title>
      </cc:Work>
    </rdf:RDF>
  </metadata>
  <defs
     id="defs7505" />
  <sodipodi:namedview
     pagecolor="#ffffff"
     bordercolor="#666666"
     borderopacity="1"
     objecttolerance="10"
     gridtolerance="10"
     guidetolerance="10"
     inkscape:pageopacity="0"
     inkscape:pageshadow="2"
     inkscape:window-width="1366"
     inkscape:window-height="750"
     id="namedview7503"
     showgrid="false"
     inkscape:zoom="0.93096647"
     inkscape:cx="202.41233"
     inkscape:cy="220.20801"
     inkscape:window-x="0"
     inkscape:window-y="18"
     inkscape:window-maximized="0"
     inkscape:current-layer="svg7501" />
  <path
     style="fill:#000000"
     d="m 121,474 0,-33 -3.5,0 c -2.83333,0 -3.5,-0.38095 -3.5,-2 0,-1.69085 0.66667,-2 4.31291,-2 3.53794,0 4.84066,-0.56178 7.25,-3.12648 4.06706,-4.32931 11.92952,-7.85185 17.55223,-7.86375 5.57177,-0.0118 9.48713,2.66554 10.68018,7.30314 0.67914,2.63992 1.36798,3.24089 4.01229,3.50045 2.38304,0.23391 3.19239,0.80434 3.19239,2.25 0,1.57987 -0.70861,1.93664 -3.8466,1.93664 -3.02232,0 -4.59766,0.72942 -7.3515,3.40392 -6.57082,6.38149 -16.43669,9.85446 -21.96682,7.73272 -2.12312,-0.81457 -2.78387,-0.71246 -3.25,0.50225 C 124.26329,453.47746 124,466.05177 124,480.58179 124,503.39798 123.79548,507 122.5,507 c -1.30303,0 -1.5,-4.33333 -1.5,-33 z m -7,-61.5 0,-2.5 23.5,0 23.5,0 0,2.5 0,2.5 -23.5,0 -23.5,0 0,-2.5 z m 0,-27 0,-2.5 23.5,0 23.5,0 0,2.5 0,2.5 -23.5,0 -23.5,0 0,-2.5 z m 0,-26.5 c 0,-1.94326 0.66667,-2 23.5,-2 22.83333,0 23.5,0.0567 23.5,2 0,1.94326 -0.66667,2 -23.5,2 -22.83333,0 -23.5,-0.0567 -23.5,-2 z M 0,332 c 0,-1.97411 0.66666667,-2 51.5,-2 l 51.5,0 0,-11.5 0,-11.5 -51.5,0 C 6.3888889,307 0,306.81392 0,305.5 0,304.18608 6.3888889,304 51.5,304 l 51.5,0 0,-12 0,-12 -51.5,0 C 6.3888889,280 0,279.81392 0,278.5 0,277.18608 6.3888889,277 51.5,277 l 51.5,0 0,-11.5 0,-11.5 -51.5,0 C 0.66666667,254 0,253.97411 0,252 c 0,-1.97411 0.66666667,-2 51.5,-2 l 51.5,0 0,-11.5 0,-11.5 -51.5,0 C 6.9581403,227 0,226.80225 0,225.5364 c 0,-1.26575 8.2796991,-1.50232 61.25,-1.75 l 61.25,-0.2864 4.17205,-4.02442 c 6.26347,-6.04185 16.4234,-9.10041 21.39369,-6.4404 1.79729,0.96188 1.93426,0.66629 1.93426,-4.17431 l 0,-5.2095 -2.25,2.11225 c -3.48172,3.26855 -10.79971,6.19016 -15.56574,6.21442 -6.91533,0.0352 -11.09253,-3.04666 -11.15246,-8.22804 -0.0286,-2.47013 -0.38799,-2.75 -3.5318,-2.75 -3.06667,0 -3.5,-0.30952 -3.5,-2.5 0,-2.28738 0.37372,-2.5 4.39424,-2.5 3.47579,0 5.04785,-0.61055 7.5213,-2.9211 6.26362,-5.8511 15.65732,-8.7282 21.83446,-6.68746 l 2.25,0.74334 0,-48.56739 L 150,90 l 2.75,-0.0058 c 3.0057,-0.0063 167.57223,15.99469 167.90298,16.32545 0.11187,0.11187 0.34822,26.52321 0.52521,58.69188 L 321.5,223.5 l 26.67048,0.26618 26.67048,0.26619 4.78137,-4.13825 c 7.8829,-6.8226 17.1942,-9.66823 22.44341,-6.85894 1.79169,0.95888 1.93426,0.66903 1.93426,-3.93237 l 0,-4.96756 -5.04597,3.39569 C 388.00891,214.89646 375,212.91872 375,203.88922 375,201.18513 374.74369,201 371,201 c -3.6,0 -4,-0.25 -4,-2.5 0,-2.30576 0.3588,-2.5 4.61798,-2.5 3.75225,0 5.28936,-0.58947 8.1992,-3.14434 6.57875,-5.77623 15.6762,-8.42078 22.03035,-6.40405 L 404,187.13478 404,144.06739 C 404,106.45193 404.18989,101 405.5,101 c 1.31031,0 1.50139,5.53267 1.51101,43.75 0.006,24.0625 0.28993,45.4375 0.63084,47.5 0.57333,3.46866 0.8726,3.75 3.98899,3.75 2.9271,0 3.36916,0.32802 3.36916,2.5 0,2.26062 -0.39302,2.5 -4.10463,2.5 l -4.10464,0 0.44836,11.25 0.44837,11.25 36.65627,0.26232 C 476.00794,223.98892 481,224.22724 481,225.51232 481,226.80273 476.03645,227 443.56809,227 l -37.4319,0 -2.08753,2.93166 C 401.29922,233.7929 390.81533,239 385.79062,239 c -4.43096,0 -9.25226,-2.15468 -10.16944,-4.5448 C 375.27953,233.56487 375,231.52323 375,229.91821 L 375,227 l -26.90484,0 -26.90485,0 0.51677,3.85277 c 0.74555,5.55854 -2.48969,12.25281 -7.77029,16.07806 L 309.69992,250 l 85.65004,0 C 480.26649,250 481,250.0171 481,251.99533 c 0,1.97924 -0.83234,1.99738 -103.25,2.25 L 274.5,254.5 l -0.28995,8.82002 c -0.20888,6.35359 -0.62833,8.70808 -1.5,8.41974 -0.77076,-0.25496 -1.31608,-3.18466 -1.50211,-8.07001 C 271.0473,259.45139 270.53976,256 270.08006,256 c -0.4597,0 -2.46577,0.68104 -4.45794,1.51342 L 262,259.02684 l 0,8.48658 c 0,6.87696 -0.2845,8.48658 -1.5,8.48658 -1.20736,0 -1.5,-1.5487 -1.5,-7.93826 l 0,-7.93827 -2.75,0.18827 c -2.41848,0.16556 -2.78778,-0.20354 -3.06336,-3.06174 L 252.87328,254 180.43664,254 108,254 l 0,11.5 0,11.5 186.5,0 c 165.11111,0 186.5,0.17203 186.5,1.5 0,1.32797 -21.38889,1.5 -186.5,1.5 l -186.5,0 0,12 0,12 186.5,0 c 165.11111,0 186.5,0.17203 186.5,1.5 0,1.32797 -21.38889,1.5 -186.5,1.5 l -186.5,0 0,11.5 0,11.5 186.5,0 c 185.83333,0 186.5,0.007 186.5,2 0,1.99446 -0.66667,2 -240.5,2 C 0.66666667,334 0,333.99446 0,332 z m 259,-90.03785 0,-8.03785 -2.75,0.28785 c -2.51707,0.26347 -2.77629,-0.0298 -3.06037,-3.46215 -0.26532,-3.20578 -0.65876,-3.75 -2.71106,-3.75 -2.32935,0 -2.40929,0.26008 -2.68964,8.75 -0.23057,6.9827 -0.5919,8.75 -1.78893,8.75 -1.17918,0 -1.56247,-1.65758 -1.79206,-7.75 -0.16064,-4.2625 -0.44318,-7.75 -0.62788,-7.75 -0.1847,0 -1.94754,0.67342 -3.91744,1.4965 l -3.58162,1.4965 -0.2905,8.24244 c -0.24381,6.9178 -0.57174,8.29618 -2.0405,8.57682 -1.54664,0.29553 -1.75,-0.57931 -1.75,-7.52836 l 0,-7.86274 -2.75,0.0394 c -2.38148,0.0341 -2.79199,-0.3961 -3.06336,-3.21058 l -0.31336,-3.25 -36.25774,0 -36.25774,0 -4.5774,4.38592 C 138.04776,241.6696 121,241.01897 121,230.32569 L 121,227 l -6.5,0 -6.5,0 0,11.5 0,11.5 75.5,0 75.5,0 0,-8.03785 z m -97.42857,-5.53358 C 158.401,233.25814 160.77162,228 165.37143,228 c 2.99621,0 4.62857,1.82148 4.62857,5.16482 0,4.34328 -5.29765,6.39467 -8.42857,3.26375 z m 128.46375,11.63717 c -3.05232,-5.70331 0.18399,-13.34624 7.65848,-18.08642 l 4.6979,-2.97932 -12.94578,0.0153 c -7.12018,0.008 -13.52946,0.38558 -14.24286,0.83812 -0.91941,0.58322 -1.21058,2.98089 -1,8.23468 0.28699,7.16013 0.382,7.41189 2.79708,7.41189 2.08957,0 2.55145,0.53356 2.81336,3.25 0.31167,3.23252 0.34279,3.25 5.78518,3.25 5.09996,0 5.40148,-0.13145 4.43664,-1.93426 z m -20.38049,-2.19412 C 270.56302,245.11778 271,242.31812 271,237.25256 l 0,-7.50256 -3.15469,0.63094 C 262.6247,231.42506 262,232.53295 262,240.74744 l 0,7.50256 3.15469,-0.63094 c 1.73508,-0.34701 3.76008,-1.13336 4.5,-1.74744 z M 228.25,223.35815 l 3.75,-0.61983 0,-7.88821 c 0,-7.87748 -0.003,-7.88738 -2.45648,-7.27168 -2.03254,0.51014 -2.56557,0.18191 -3.08856,-1.90185 -0.97956,-3.90288 -0.17528,-6.04403 2.80727,-7.47353 2.66675,-1.27814 2.73777,-1.53317 2.73777,-9.83094 0,-7.57365 0.19415,-8.48171 1.75,-8.18483 1.44079,0.27493 1.80191,1.61306 2.04381,7.57332 0.16159,3.98167 0.57965,7.2394 0.929,7.2394 0.34936,0 2.11336,-0.53451 3.92,-1.1878 l 3.2848,-1.1878 0.2862,-8.5622 C 244.44167,177.24522 244.80574,175.5 246,175.5 c 1.17644,0 1.56243,1.64017 1.78943,7.60379 0.28318,7.43938 0.34164,7.59381 2.7039,7.14224 4.67432,-0.89356 4.60256,8.00662 -0.0789,9.7865 -2.27788,0.86605 -2.41443,1.37536 -2.41443,9.00558 0,7.14549 0.20386,8.05407 1.75,7.79971 2.62599,-0.43202 4.25,0.98993 4.25,3.7212 0,1.92634 0.51855,2.44098 2.45956,2.44098 2.39052,0 2.46771,-0.23157 2.75,-8.25 0.35511,-10.08688 2.17376,-10.96414 2.59137,-1.25 0.1655,3.85 0.64833,7.34783 1.07295,7.77295 0.42461,0.42512 2.42669,0.0816 4.44907,-0.76342 L 271,218.97316 l 0,-8.48658 C 271,203.60962 271.2845,202 272.5,202 c 1.2,0 1.5,1.5 1.5,7.5 l 0,7.5 3,0 c 2.6397,0 3,0.34629 3,2.88337 0,3.14515 1.76169,4.07782 7.75,4.10298 3.15571,0.0132 4.28151,-1.23081 2.25,-2.48635 -0.55,-0.33992 -1,-2.51202 -1,-4.82688 0,-5.9889 3.46496,-10.5763 11.03676,-14.61203 5.58594,-2.97727 6.81958,-3.26122 12.09191,-2.78314 L 318,199.81034 318,184.40517 318,169 l -2.75,-0.0731 c -1.5125,-0.0402 -10.85,-0.82773 -20.75,-1.75 l -18,-1.67685 -0.29328,-7.81776 -0.29329,-7.81777 4.29329,0.55979 c 2.3613,0.30789 9.69328,1.02062 16.29328,1.58386 6.6,0.56323 14.1375,1.28405 16.75,1.60181 l 4.75,0.57775 0,-4.59384 C 318,146.90278 317.54162,145 316.89334,145 315.09975,145 161.85568,130.07565 157.75,129.50112 l -3.75,-0.52476 0,33.51182 0,33.51182 3.5,0 c 3.06667,0 3.5,0.30952 3.5,2.5 0,2.19048 -0.43333,2.5 -3.5,2.5 l -3.5,0 0,10.83333 c 0,5.95834 0.3,11.13334 0.66667,11.5 0.84024,0.84024 68.51197,0.86307 73.58333,0.0248 z M 161.57143,209.42857 C 160.70714,208.56429 160,207.02143 160,206 c 0,-2.2333 2.56593,-5 4.63717,-5 4.59415,0 7.28164,5.68119 4.16283,8.8 -1.68275,1.68275 -5.36352,1.49362 -7.22857,-0.37143 z M 318,220.45737 l 0,-3.54263 -3.50696,2.79263 c -3.39768,2.70561 -3.43663,2.81289 -1.25,3.44295 4.27224,1.231 4.75696,0.9566 4.75696,-2.69295 z M 243.62212,219 c 0.20784,0 0.37788,-3.6 0.37788,-8 0,-4.4 -0.38285,-8 -0.85078,-8 -0.46792,0 -2.26792,0.49402 -4,1.09783 L 236,205.19565 l 0,8.4156 0,8.41559 3.62212,-1.51342 c 1.99217,-0.83238 3.79217,-1.51342 4,-1.51342 z M 318,125.5 c 0,-2.475 -0.39001,-4.5 -0.86669,-4.5 C 315.41009,121 162.3917,106.03928 158.25,105.46587 l -4.25,-0.58842 0,4.56128 c 0,3.65676 0.34703,4.57201 1.75,4.61545 0.9625,0.0298 37.075,3.57843 80.25,7.88583 43.175,4.30741 79.2875,7.88303 80.25,7.94582 1.42432,0.0929 1.75,-0.72329 1.75,-4.38583 z"
     id="path7511"
     inkscape:connector-curvature="0" />
</svg>
