<?xml version="1.0" encoding="UTF-8" standalone="no"?>
<!-- Created with Inkscape (http://www.inkscape.org/) -->

<svg
   xmlns:dc="http://purl.org/dc/elements/1.1/"
   xmlns:cc="http://creativecommons.org/ns#"
   xmlns:rdf="http://www.w3.org/1999/02/22-rdf-syntax-ns#"
   xmlns:svg="http://www.w3.org/2000/svg"
   xmlns="http://www.w3.org/2000/svg"
   xmlns:sodipodi="http://sodipodi.sourceforge.net/DTD/sodipodi-0.dtd"
   xmlns:inkscape="http://www.inkscape.org/namespaces/inkscape"
   id="svg7312"
   version="1.1"
   inkscape:version="0.48.4 r9939"
   width="527.68774"
   height="345.96484"
   xml:space="preserve"
   sodipodi:docname="Declaration.svg"><metadata
     id="metadata7318"><rdf:RDF><cc:Work
         rdf:about=""><dc:format>image/svg+xml</dc:format><dc:type
           rdf:resource="http://purl.org/dc/dcmitype/StillImage" /><dc:title></dc:title></cc:Work></rdf:RDF></metadata><defs
     id="defs7316"><clipPath
       clipPathUnits="userSpaceOnUse"
       id="clipPath7326"><path
         d="m 0,0.1 595.2,0 0,841.8 L 0,841.9 0,0.1 z"
         clip-rule="evenodd"
         id="path7328"
         inkscape:connector-curvature="0" /></clipPath><clipPath
       clipPathUnits="userSpaceOnUse"
       id="clipPath7382"><path
         d="m -9,420 613,0 0,0.1 -613,0 0,-0.1 z"
         id="path7384"
         inkscape:connector-curvature="0" /></clipPath></defs><sodipodi:namedview
     pagecolor="#ffffff"
     bordercolor="#666666"
     borderopacity="1"
     objecttolerance="10"
     gridtolerance="10"
     guidetolerance="10"
     inkscape:pageopacity="0"
     inkscape:pageshadow="2"
     inkscape:window-width="1366"
     inkscape:window-height="750"
     id="namedview7314"
     showgrid="false"
     fit-margin-left="5"
     fit-margin-right="5"
     fit-margin-top="5"
     fit-margin-bottom="5"
     inkscape:zoom="0.89691211"
     inkscape:cx="245.58301"
     inkscape:cy="109.6461"
     inkscape:window-x="0"
     inkscape:window-y="18"
     inkscape:window-maximized="0"
     inkscape:current-layer="g7324" /><g
     id="g7320"
     inkscape:groupmode="layer"
     inkscape:label="Declaration"
     transform="matrix(1.25,0,0,-1.25,-108.37695,912.36914)"><g
       id="g7322"><g
         id="g7324"
         clip-path="url(#clipPath7326)"><g
           id="g7330"><text
             transform="matrix(1,0,0,-1,241.5,711.2)"
             id="text7332"><tspan
               style="font-size:18px;font-variant:normal;font-weight:normal;writing-mode:lr-tb;fill:#000000;fill-opacity:1;fill-rule:nonzero;stroke:none;font-family:WenQuanYi Bitmap Song;-inkscape-font-specification:WenQuanYiMicroHei"
               x="0 18.774 37.458 56.231998 74.916 93.690002"
               y="0"
               sodipodi:role="line"
               id="tspan7334">学术诚信声明</tspan></text>
</g><g
           id="g7336"><text
             transform="matrix(1,0,0,-1,118.1,663.8)"
             id="text7338"><tspan
               style="font-size:14px;font-variant:normal;font-weight:normal;writing-mode:lr-tb;fill:#000000;fill-opacity:1;fill-rule:nonzero;stroke:none;font-family:SimSun;-inkscape-font-specification:SimSun"
               x="0 14 28 42 56 70 84 98 112 126 140 154 168 182 196 210 224 238 252 266 280 294 308 322 336 350 364"
               y="0"
               sodipodi:role="line"
               id="tspan7340">本人所呈交的毕业论文，是在导师的指导下，独立进行研究工</tspan></text>
</g><g
           id="g7342"><text
             transform="matrix(1,0,0,-1,90.1,635.8)"
             id="text7344"><tspan
               style="font-size:14px;font-variant:normal;font-weight:normal;writing-mode:lr-tb;fill:#000000;fill-opacity:1;fill-rule:nonzero;stroke:none;font-family:SimSun;-inkscape-font-specification:SimSun"
               x="0 14 28 42 56 70 84 98 112 126 140 154 168 179.70399 193.70399 207.70399 221.70399 235.70399 249.70399 263.70401 277.70401 291.70401 305.70401 317.40799 331.40799 345.40799 359.40799 373.40799 387.40799 401.40799"
               y="0"
               sodipodi:role="line"
               id="tspan7346">作所取得的成果，所有数据、图片资料均真实可靠。除文中已经注明</tspan></text>
</g><g
           id="g7348"><text
             transform="matrix(1,0,0,-1,90.1,607.8)"
             id="text7350"><tspan
               style="font-size:14px;font-variant:normal;font-weight:normal;writing-mode:lr-tb;fill:#000000;fill-opacity:1;fill-rule:nonzero;stroke:none;font-family:SimSun;-inkscape-font-specification:SimSun"
               x="0 14 28 42 56 70 84 98 112 126 140 154 168 182 196 210 224 238 252 266 280 294 308 322 336 350 364 378 392"
               y="0"
               sodipodi:role="line"
               id="tspan7352">引用的内容外，本论文不包含任何其他人或集体已经发表或撰写过</tspan></text>
</g><g
           id="g7354"><text
             transform="matrix(1,0,0,-1,90.1,579.8)"
             id="text7356"><tspan
               style="font-size:14px;font-variant:normal;font-weight:normal;writing-mode:lr-tb;fill:#000000;fill-opacity:1;fill-rule:nonzero;stroke:none;font-family:SimSun;-inkscape-font-specification:SimSun"
               x="0 14 28 42 56 70 84 93.393997 107.394 121.394 135.394 149.394 163.394 177.394 191.394 205.394 219.394 233.394 247.394 261.39401 275.39401 289.39401 303.39401 317.39401 331.39401 345.39401 359.39401 373.39401 387.39401 401.39401"
               y="0"
               sodipodi:role="line"
               id="tspan7358">的作品或成果。对本论文的研究作出重要贡献的个人和集体，均已在</tspan></text>
</g><g
           id="g7360"><text
             transform="matrix(1,0,0,-1,90.1,551.8)"
             id="text7362"><tspan
               style="font-size:14px;font-variant:normal;font-weight:normal;writing-mode:lr-tb;fill:#000000;fill-opacity:1;fill-rule:nonzero;stroke:none;font-family:SimSun;-inkscape-font-specification:SimSun"
               x="0 14 28 42 56 70 84 98 112 126 140 151.70399 165.70399 179.70399 193.70399 207.70399 221.70399 235.70399 249.70399 263.70401 277.70401 291.70401 305.70401 319.70401 333.70401 347.70401 361.70401 375.70401 389.70401 401.40799"
               y="0"
               sodipodi:role="line"
               id="tspan7364">文中以明确的方式标明。本毕业论文的知识产权归属于培养单位。本</tspan></text>
</g><g
           id="g7366"><text
             transform="matrix(1,0,0,-1,90.1,523.8)"
             id="text7368"><tspan
               style="font-size:14px;font-variant:normal;font-weight:normal;writing-mode:lr-tb;fill:#000000;fill-opacity:1;fill-rule:nonzero;stroke:none;font-family:SimSun;-inkscape-font-specification:SimSun"
               x="0 14 28 42 56 70 84 98 112 126 140 154 168 182 196 210 224 238 252 266"
               y="0"
               sodipodi:role="line"
               id="tspan7370">人完全意识到本声明的法律结果由本人承担。</tspan></text>
</g></g></g><g
       id="g7378"><g
         id="g7380" /><g
         id="g7386"><g
           clip-path="url(#clipPath7382)"
           id="g7388"
           style="opacity:0.5" /></g></g></g></svg>