<?xml version="1.0" encoding="UTF-8" standalone="no"?>
<!-- Created with Inkscape (http://www.inkscape.org/) -->

<svg
   xmlns:ns0="http://www.iki.fi/pav/software/textext/"
   xmlns:dc="http://purl.org/dc/elements/1.1/"
   xmlns:cc="http://creativecommons.org/ns#"
   xmlns:rdf="http://www.w3.org/1999/02/22-rdf-syntax-ns#"
   xmlns:svg="http://www.w3.org/2000/svg"
   xmlns="http://www.w3.org/2000/svg"
   xmlns:xlink="http://www.w3.org/1999/xlink"
   xmlns:sodipodi="http://sodipodi.sourceforge.net/DTD/sodipodi-0.dtd"
   xmlns:inkscape="http://www.inkscape.org/namespaces/inkscape"
   width="210mm"
   height="297mm"
   id="svg6870"
   version="1.1"
   inkscape:version="0.48.4 r9939"
   sodipodi:docname="primitive-line.svg">
  <sodipodi:namedview
     inkscape:document-units="mm"
     id="base"
     pagecolor="#ffffff"
     bordercolor="#666666"
     borderopacity="1.0"
     inkscape:pageopacity="0.0"
     inkscape:pageshadow="2"
     inkscape:zoom="1.4"
     inkscape:cx="255.02106"
     inkscape:cy="882.56281"
     inkscape:current-layer="g3011"
     showgrid="false"
     inkscape:window-width="1063"
     inkscape:window-height="746"
     inkscape:window-x="0"
     inkscape:window-y="18"
     inkscape:window-maximized="0" />
  <defs
     id="defs3">
    <marker
       inkscape:stockid="Arrow1Mend"
       orient="auto"
       refY="0.0"
       refX="0.0"
       id="Arrow1Mend"
       style="overflow:visible;">
      <path
         id="path4325"
         d="M 0.0,0.0 L 5.0,-5.0 L -12.5,0.0 L 5.0,5.0 L 0.0,0.0 z "
         style="fill-rule:evenodd;stroke:#000000;stroke-width:1.0pt;"
         transform="scale(0.4) rotate(180) translate(10,0)" />
    </marker>
    <marker
       inkscape:stockid="Arrow1Mstart"
       orient="auto"
       refY="0.0"
       refX="0.0"
       id="Arrow1Mstart"
       style="overflow:visible">
      <path
         id="path4322"
         d="M 0.0,0.0 L 5.0,-5.0 L -12.5,0.0 L 5.0,5.0 L 0.0,0.0 z "
         style="fill-rule:evenodd;stroke:#000000;stroke-width:1.0pt"
         transform="scale(0.4) translate(10,0)" />
    </marker>
  </defs>
  <metadata
     id="metadata4">
    <rdf:RDF>
      <cc:Work
         rdf:about="">
        <dc:format>image/svg+xml</dc:format>
        <dc:type
           rdf:resource="http://purl.org/dc/dcmitype/StillImage" />
        <dc:title />
      </cc:Work>
    </rdf:RDF>
  </metadata>
  <g
     id="layer1"
     inkscape:groupmode="layer"
     inkscape:label="Layer 1">
    <rect
       transform="matrix(0.94865732,0.3163057,-0.3163057,0.94865732,0,0)"
       y="15.662438"
       x="118.22298"
       height="27.952637"
       width="274.23801"
       id="rect6876"
       style="fill:none;stroke:#000000;stroke-width:0.37476403;stroke-miterlimit:4;stroke-opacity:1;stroke-dasharray:none;stroke-dashoffset:0.15999999" />
    <path
       sodipodi:nodetypes="cc"
       inkscape:connector-curvature="0"
       id="path7386"
       d="M 102.90178,65.665753 362.85714,152.71932"
       style="fill:none;stroke:#000000;stroke-width:1px;stroke-linecap:butt;stroke-linejoin:miter;stroke-opacity:1" />
    <path
       transform="matrix(1.2832888,0,0,1.2832888,-29.289842,-18.993928)"
       d="m 104.41964,65.933609 a 1.4508928,1.4285715 0 1 1 -2.90178,0 1.4508928,1.4285715 0 1 1 2.90178,0 z"
       sodipodi:ry="1.4285715"
       sodipodi:rx="1.4508928"
       sodipodi:cy="65.933609"
       sodipodi:cx="102.96875"
       id="path7388"
       style="fill:#ffffff;fill-opacity:1;stroke:#000000;stroke-width:0.27611142;stroke-miterlimit:4;stroke-opacity:1;stroke-dasharray:none;stroke-dashoffset:0.15999999"
       sodipodi:type="arc" />
    <path
       transform="matrix(1.2832888,0,0,1.2832888,230.80144,68.364023)"
       d="m 104.41964,65.933609 a 1.4508928,1.4285715 0 1 1 -2.90178,0 1.4508928,1.4285715 0 1 1 2.90178,0 z"
       sodipodi:ry="1.4285715"
       sodipodi:rx="1.4508928"
       sodipodi:cy="65.933609"
       sodipodi:cx="102.96875"
       id="path7388-2"
       style="fill:#ffffff;fill-opacity:1;stroke:#000000;stroke-width:0.27611142;stroke-miterlimit:4;stroke-opacity:1;stroke-dasharray:none;stroke-dashoffset:0.15999999"
       sodipodi:type="arc" />
    <g
       id="g3011"
       ns0:preamble=""
       ns0:text="$x_1$"
       transform="translate(-130.81475,-28.789347)">
      <defs
         id="defs3013">
        <g
           id="g3015">
          <symbol
             id="textext-2f1ff255-0"
             overflow="visible"
             style="overflow:visible">
            <path
               id="path3018"
               d=""
               style="stroke:none"
               inkscape:connector-curvature="0" />
          </symbol>
          <symbol
             id="textext-2f1ff255-1"
             overflow="visible"
             style="overflow:visible">
            <path
               id="path3021"
               d="M 3.328125,-3.015625 C 3.390625,-3.265625 3.625,-4.1875 4.3125,-4.1875 c 0.046875,0 0.296875,0 0.5,0.125 C 4.53125,-4 4.34375,-3.765625 4.34375,-3.515625 c 0,0.15625 0.109375,0.34375 0.375,0.34375 0.21875,0 0.53125,-0.171875 0.53125,-0.578125 0,-0.515625 -0.578125,-0.65625 -0.921875,-0.65625 -0.578125,0 -0.921875,0.53125 -1.046875,0.75 -0.25,-0.65625 -0.78125,-0.75 -1.078125,-0.75 -1.03125,0 -1.609375,1.28125 -1.609375,1.53125 0,0.109375 0.109375,0.109375 0.125,0.109375 0.078125,0 0.109375,-0.03125 0.125,-0.109375 0.34375,-1.0625 1,-1.3125 1.34375,-1.3125 0.1875,0 0.53125,0.09375 0.53125,0.671875 0,0.3125 -0.171875,0.96875 -0.53125,2.375 -0.15625,0.609375 -0.515625,1.03125 -0.953125,1.03125 -0.0625,0 -0.28125,0 -0.5,-0.125 0.25,-0.0625 0.46875,-0.265625 0.46875,-0.546875 0,-0.265625 -0.21875,-0.34375 -0.359375,-0.34375 -0.3125,0 -0.546875,0.25 -0.546875,0.578125 0,0.453125 0.484375,0.65625 0.921875,0.65625 0.671875,0 1.03125,-0.703125 1.046875,-0.75 0.125,0.359375 0.484375,0.75 1.078125,0.75 1.03125,0 1.59375,-1.28125 1.59375,-1.53125 0,-0.109375 -0.078125,-0.109375 -0.109375,-0.109375 -0.09375,0 -0.109375,0.046875 -0.140625,0.109375 -0.328125,1.078125 -1,1.3125 -1.3125,1.3125 -0.390625,0 -0.546875,-0.3125 -0.546875,-0.65625 0,-0.21875 0.046875,-0.4375 0.15625,-0.875 z"
               style="stroke:none"
               inkscape:connector-curvature="0" />
          </symbol>
          <symbol
             id="textext-2f1ff255-2"
             overflow="visible"
             style="overflow:visible">
            <path
               id="path3024"
               d=""
               style="stroke:none"
               inkscape:connector-curvature="0" />
          </symbol>
          <symbol
             id="textext-2f1ff255-3"
             overflow="visible"
             style="overflow:visible">
            <path
               id="path3027"
               d="m 2.328125,-4.4375 c 0,-0.1875 0,-0.1875 -0.203125,-0.1875 -0.453125,0.4375 -1.078125,0.4375 -1.359375,0.4375 l 0,0.25 c 0.15625,0 0.625,0 1,-0.1875 l 0,3.546875 c 0,0.234375 0,0.328125 -0.6875,0.328125 l -0.265625,0 0,0.25 c 0.125,0 0.984375,-0.03125 1.234375,-0.03125 0.21875,0 1.09375,0.03125 1.25,0.03125 l 0,-0.25 -0.265625,0 c -0.703125,0 -0.703125,-0.09375 -0.703125,-0.328125 z"
               style="stroke:none"
               inkscape:connector-curvature="0" />
          </symbol>
        </g>
      </defs>
      <g
         transform="translate(-23.571428,-42.857143)"
         ns0:text="$(x_1, y_1)$"
         ns0:preamble=""
         id="g3090">
        <defs
           id="defs3092">
          <g
             id="g3094">
            <symbol
               style="overflow:visible"
               overflow="visible"
               id="textext-805b6e46-0">
              <path
                 inkscape:connector-curvature="0"
                 style="stroke:none"
                 d=""
                 id="path3097" />
            </symbol>
            <symbol
               style="overflow:visible"
               overflow="visible"
               id="textext-805b6e46-1">
              <path
                 inkscape:connector-curvature="0"
                 style="stroke:none"
                 d="m 3.296875,2.390625 c 0,-0.03125 0,-0.046875 -0.171875,-0.21875 C 1.890625,0.921875 1.5625,-0.96875 1.5625,-2.5 c 0,-1.734375 0.375,-3.46875 1.609375,-4.703125 0.125,-0.125 0.125,-0.140625 0.125,-0.171875 0,-0.078125 -0.03125,-0.109375 -0.09375,-0.109375 -0.109375,0 -1,0.6875 -1.59375,1.953125 -0.5,1.09375 -0.625,2.203125 -0.625,3.03125 0,0.78125 0.109375,1.984375 0.65625,3.125 C 2.25,1.84375 3.09375,2.5 3.203125,2.5 c 0.0625,0 0.09375,-0.03125 0.09375,-0.109375 z"
                 id="path3100" />
            </symbol>
            <symbol
               style="overflow:visible"
               overflow="visible"
               id="textext-805b6e46-2">
              <path
                 inkscape:connector-curvature="0"
                 style="stroke:none"
                 d="m 2.875,-2.5 c 0,-0.765625 -0.109375,-1.96875 -0.65625,-3.109375 -0.59375,-1.21875 -1.453125,-1.875 -1.546875,-1.875 -0.0625,0 -0.109375,0.046875 -0.109375,0.109375 0,0.03125 0,0.046875 0.1875,0.234375 0.984375,0.984375 1.546875,2.5625 1.546875,4.640625 0,1.71875 -0.359375,3.46875 -1.59375,4.71875 C 0.5625,2.34375 0.5625,2.359375 0.5625,2.390625 0.5625,2.453125 0.609375,2.5 0.671875,2.5 0.765625,2.5 1.671875,1.8125 2.25,0.546875 2.765625,-0.546875 2.875,-1.65625 2.875,-2.5 z"
                 id="path3103" />
            </symbol>
            <symbol
               style="overflow:visible"
               overflow="visible"
               id="textext-805b6e46-3">
              <path
                 inkscape:connector-curvature="0"
                 style="stroke:none"
                 d=""
                 id="path3106" />
            </symbol>
            <symbol
               style="overflow:visible"
               overflow="visible"
               id="textext-805b6e46-4">
              <path
                 inkscape:connector-curvature="0"
                 style="stroke:none"
                 d="M 3.328125,-3.015625 C 3.390625,-3.265625 3.625,-4.1875 4.3125,-4.1875 c 0.046875,0 0.296875,0 0.5,0.125 C 4.53125,-4 4.34375,-3.765625 4.34375,-3.515625 c 0,0.15625 0.109375,0.34375 0.375,0.34375 0.21875,0 0.53125,-0.171875 0.53125,-0.578125 0,-0.515625 -0.578125,-0.65625 -0.921875,-0.65625 -0.578125,0 -0.921875,0.53125 -1.046875,0.75 -0.25,-0.65625 -0.78125,-0.75 -1.078125,-0.75 -1.03125,0 -1.609375,1.28125 -1.609375,1.53125 0,0.109375 0.109375,0.109375 0.125,0.109375 0.078125,0 0.109375,-0.03125 0.125,-0.109375 0.34375,-1.0625 1,-1.3125 1.34375,-1.3125 0.1875,0 0.53125,0.09375 0.53125,0.671875 0,0.3125 -0.171875,0.96875 -0.53125,2.375 -0.15625,0.609375 -0.515625,1.03125 -0.953125,1.03125 -0.0625,0 -0.28125,0 -0.5,-0.125 0.25,-0.0625 0.46875,-0.265625 0.46875,-0.546875 0,-0.265625 -0.21875,-0.34375 -0.359375,-0.34375 -0.3125,0 -0.546875,0.25 -0.546875,0.578125 0,0.453125 0.484375,0.65625 0.921875,0.65625 0.671875,0 1.03125,-0.703125 1.046875,-0.75 0.125,0.359375 0.484375,0.75 1.078125,0.75 1.03125,0 1.59375,-1.28125 1.59375,-1.53125 0,-0.109375 -0.078125,-0.109375 -0.109375,-0.109375 -0.09375,0 -0.109375,0.046875 -0.140625,0.109375 -0.328125,1.078125 -1,1.3125 -1.3125,1.3125 -0.390625,0 -0.546875,-0.3125 -0.546875,-0.65625 0,-0.21875 0.046875,-0.4375 0.15625,-0.875 z"
                 id="path3109" />
            </symbol>
            <symbol
               style="overflow:visible"
               overflow="visible"
               id="textext-805b6e46-5">
              <path
                 inkscape:connector-curvature="0"
                 style="stroke:none"
                 d="m 2.03125,-0.015625 c 0,-0.65625 -0.25,-1.046875 -0.640625,-1.046875 -0.328125,0 -0.53125,0.25 -0.53125,0.53125 C 0.859375,-0.265625 1.0625,0 1.390625,0 1.5,0 1.640625,-0.046875 1.734375,-0.125 1.765625,-0.15625 1.78125,-0.15625 1.78125,-0.15625 c 0.015625,0 0.015625,0 0.015625,0.140625 0,0.75 -0.34375,1.34375 -0.671875,1.671875 -0.109375,0.109375 -0.109375,0.125 -0.109375,0.15625 0,0.078125 0.046875,0.109375 0.09375,0.109375 0.109375,0 0.921875,-0.765625 0.921875,-1.9375 z"
                 id="path3112" />
            </symbol>
            <symbol
               style="overflow:visible"
               overflow="visible"
               id="textext-805b6e46-6">
              <path
                 inkscape:connector-curvature="0"
                 style="stroke:none"
                 d="m 4.84375,-3.796875 c 0.046875,-0.140625 0.046875,-0.15625 0.046875,-0.234375 0,-0.171875 -0.140625,-0.265625 -0.296875,-0.265625 -0.09375,0 -0.25,0.0625 -0.34375,0.203125 -0.015625,0.0625 -0.109375,0.359375 -0.140625,0.546875 -0.078125,0.25 -0.140625,0.53125 -0.203125,0.796875 l -0.453125,1.796875 c -0.03125,0.140625 -0.46875,0.84375 -1.125,0.84375 -0.5,0 -0.609375,-0.4375 -0.609375,-0.8125 C 1.71875,-1.375 1.890625,-2 2.21875,-2.875 2.375,-3.28125 2.421875,-3.390625 2.421875,-3.59375 c 0,-0.4375 -0.3125,-0.8125 -0.8125,-0.8125 -0.953125,0 -1.3125,1.453125 -1.3125,1.53125 0,0.109375 0.09375,0.109375 0.109375,0.109375 0.109375,0 0.109375,-0.03125 0.15625,-0.1875 0.28125,-0.9375 0.671875,-1.234375 1.015625,-1.234375 0.078125,0 0.25,0 0.25,0.3125 0,0.25 -0.109375,0.515625 -0.171875,0.703125 -0.40625,1.0625 -0.578125,1.625 -0.578125,2.09375 0,0.890625 0.625,1.1875 1.21875,1.1875 0.390625,0 0.71875,-0.171875 1,-0.453125 -0.125,0.515625 -0.25,1.015625 -0.640625,1.546875 -0.265625,0.328125 -0.640625,0.625 -1.09375,0.625 -0.140625,0 -0.59375,-0.03125 -0.765625,-0.421875 0.15625,0 0.296875,0 0.421875,-0.125 C 1.328125,1.203125 1.421875,1.0625 1.421875,0.875 1.421875,0.5625 1.15625,0.53125 1.0625,0.53125 0.828125,0.53125 0.5,0.6875 0.5,1.171875 c 0,0.5 0.4375,0.875 1.0625,0.875 1.015625,0 2.046875,-0.90625 2.328125,-2.03125 z"
                 id="path3115" />
            </symbol>
            <symbol
               style="overflow:visible"
               overflow="visible"
               id="textext-805b6e46-7">
              <path
                 inkscape:connector-curvature="0"
                 style="stroke:none"
                 d=""
                 id="path3118" />
            </symbol>
            <symbol
               style="overflow:visible"
               overflow="visible"
               id="textext-805b6e46-8">
              <path
                 inkscape:connector-curvature="0"
                 style="stroke:none"
                 d="m 2.328125,-4.4375 c 0,-0.1875 0,-0.1875 -0.203125,-0.1875 -0.453125,0.4375 -1.078125,0.4375 -1.359375,0.4375 l 0,0.25 c 0.15625,0 0.625,0 1,-0.1875 l 0,3.546875 c 0,0.234375 0,0.328125 -0.6875,0.328125 l -0.265625,0 0,0.25 c 0.125,0 0.984375,-0.03125 1.234375,-0.03125 0.21875,0 1.09375,0.03125 1.25,0.03125 l 0,-0.25 -0.265625,0 c -0.703125,0 -0.703125,-0.09375 -0.703125,-0.328125 z"
                 id="path3121" />
            </symbol>
          </g>
        </defs>
        <g
           id="textext-805b6e46-9">
          <g
             style="fill:#000000;fill-opacity:1"
             id="g3124">
            <use
               height="1052.3622"
               width="744.09448"
               xlink:href="#textext-805b6e46-1"
               x="223.43201"
               y="134.765"
               id="use3126" />
          </g>
          <g
             style="fill:#000000;fill-opacity:1"
             id="g3128">
            <use
               height="1052.3622"
               width="744.09448"
               xlink:href="#textext-805b6e46-4"
               x="227.306"
               y="134.765"
               id="use3130" />
          </g>
          <g
             style="fill:#000000;fill-opacity:1"
             id="g3132">
            <use
               height="1052.3622"
               width="744.09448"
               xlink:href="#textext-805b6e46-8"
               x="233"
               y="136.259"
               id="use3134" />
          </g>
          <g
             style="fill:#000000;fill-opacity:1"
             id="g3136">
            <use
               height="1052.3622"
               width="744.09448"
               xlink:href="#textext-805b6e46-5"
               x="237.47"
               y="134.765"
               id="use3138" />
          </g>
          <g
             style="fill:#000000;fill-opacity:1"
             id="g3140">
            <use
               height="1052.3622"
               width="744.09448"
               xlink:href="#textext-805b6e46-6"
               x="241.90137"
               y="134.765"
               id="use3142" />
          </g>
          <g
             style="fill:#000000;fill-opacity:1"
             id="g3144">
            <use
               height="1052.3622"
               width="744.09448"
               xlink:href="#textext-805b6e46-8"
               x="246.782"
               y="136.259"
               id="use3146" />
          </g>
          <g
             style="fill:#000000;fill-opacity:1"
             id="g3148">
            <use
               height="1052.3622"
               width="744.09448"
               xlink:href="#textext-805b6e46-2"
               x="251.25101"
               y="134.765"
               id="use3150" />
          </g>
        </g>
      </g>
      <g
         id="g3390"
         transform="translate(247.97213,37.450153)"
         ns0:preamble=""
         ns0:text="$(x_2, y_2)$">
        <defs
           id="defs3392">
          <g
             id="g3394">
            <symbol
               id="textext-baf4f9da-0"
               overflow="visible"
               style="overflow:visible">
              <path
                 id="path3397"
                 d=""
                 style="stroke:none"
                 inkscape:connector-curvature="0" />
            </symbol>
            <symbol
               id="textext-baf4f9da-1"
               overflow="visible"
               style="overflow:visible">
              <path
                 id="path3400"
                 d="m 3.296875,2.390625 c 0,-0.03125 0,-0.046875 -0.171875,-0.21875 C 1.890625,0.921875 1.5625,-0.96875 1.5625,-2.5 c 0,-1.734375 0.375,-3.46875 1.609375,-4.703125 0.125,-0.125 0.125,-0.140625 0.125,-0.171875 0,-0.078125 -0.03125,-0.109375 -0.09375,-0.109375 -0.109375,0 -1,0.6875 -1.59375,1.953125 -0.5,1.09375 -0.625,2.203125 -0.625,3.03125 0,0.78125 0.109375,1.984375 0.65625,3.125 C 2.25,1.84375 3.09375,2.5 3.203125,2.5 c 0.0625,0 0.09375,-0.03125 0.09375,-0.109375 z"
                 style="stroke:none"
                 inkscape:connector-curvature="0" />
            </symbol>
            <symbol
               id="textext-baf4f9da-2"
               overflow="visible"
               style="overflow:visible">
              <path
                 id="path3403"
                 d="m 2.875,-2.5 c 0,-0.765625 -0.109375,-1.96875 -0.65625,-3.109375 -0.59375,-1.21875 -1.453125,-1.875 -1.546875,-1.875 -0.0625,0 -0.109375,0.046875 -0.109375,0.109375 0,0.03125 0,0.046875 0.1875,0.234375 0.984375,0.984375 1.546875,2.5625 1.546875,4.640625 0,1.71875 -0.359375,3.46875 -1.59375,4.71875 C 0.5625,2.34375 0.5625,2.359375 0.5625,2.390625 0.5625,2.453125 0.609375,2.5 0.671875,2.5 0.765625,2.5 1.671875,1.8125 2.25,0.546875 2.765625,-0.546875 2.875,-1.65625 2.875,-2.5 z"
                 style="stroke:none"
                 inkscape:connector-curvature="0" />
            </symbol>
            <symbol
               id="textext-baf4f9da-3"
               overflow="visible"
               style="overflow:visible">
              <path
                 id="path3406"
                 d=""
                 style="stroke:none"
                 inkscape:connector-curvature="0" />
            </symbol>
            <symbol
               id="textext-baf4f9da-4"
               overflow="visible"
               style="overflow:visible">
              <path
                 id="path3409"
                 d="M 3.328125,-3.015625 C 3.390625,-3.265625 3.625,-4.1875 4.3125,-4.1875 c 0.046875,0 0.296875,0 0.5,0.125 C 4.53125,-4 4.34375,-3.765625 4.34375,-3.515625 c 0,0.15625 0.109375,0.34375 0.375,0.34375 0.21875,0 0.53125,-0.171875 0.53125,-0.578125 0,-0.515625 -0.578125,-0.65625 -0.921875,-0.65625 -0.578125,0 -0.921875,0.53125 -1.046875,0.75 -0.25,-0.65625 -0.78125,-0.75 -1.078125,-0.75 -1.03125,0 -1.609375,1.28125 -1.609375,1.53125 0,0.109375 0.109375,0.109375 0.125,0.109375 0.078125,0 0.109375,-0.03125 0.125,-0.109375 0.34375,-1.0625 1,-1.3125 1.34375,-1.3125 0.1875,0 0.53125,0.09375 0.53125,0.671875 0,0.3125 -0.171875,0.96875 -0.53125,2.375 -0.15625,0.609375 -0.515625,1.03125 -0.953125,1.03125 -0.0625,0 -0.28125,0 -0.5,-0.125 0.25,-0.0625 0.46875,-0.265625 0.46875,-0.546875 0,-0.265625 -0.21875,-0.34375 -0.359375,-0.34375 -0.3125,0 -0.546875,0.25 -0.546875,0.578125 0,0.453125 0.484375,0.65625 0.921875,0.65625 0.671875,0 1.03125,-0.703125 1.046875,-0.75 0.125,0.359375 0.484375,0.75 1.078125,0.75 1.03125,0 1.59375,-1.28125 1.59375,-1.53125 0,-0.109375 -0.078125,-0.109375 -0.109375,-0.109375 -0.09375,0 -0.109375,0.046875 -0.140625,0.109375 -0.328125,1.078125 -1,1.3125 -1.3125,1.3125 -0.390625,0 -0.546875,-0.3125 -0.546875,-0.65625 0,-0.21875 0.046875,-0.4375 0.15625,-0.875 z"
                 style="stroke:none"
                 inkscape:connector-curvature="0" />
            </symbol>
            <symbol
               id="textext-baf4f9da-5"
               overflow="visible"
               style="overflow:visible">
              <path
                 id="path3412"
                 d="m 2.03125,-0.015625 c 0,-0.65625 -0.25,-1.046875 -0.640625,-1.046875 -0.328125,0 -0.53125,0.25 -0.53125,0.53125 C 0.859375,-0.265625 1.0625,0 1.390625,0 1.5,0 1.640625,-0.046875 1.734375,-0.125 1.765625,-0.15625 1.78125,-0.15625 1.78125,-0.15625 c 0.015625,0 0.015625,0 0.015625,0.140625 0,0.75 -0.34375,1.34375 -0.671875,1.671875 -0.109375,0.109375 -0.109375,0.125 -0.109375,0.15625 0,0.078125 0.046875,0.109375 0.09375,0.109375 0.109375,0 0.921875,-0.765625 0.921875,-1.9375 z"
                 style="stroke:none"
                 inkscape:connector-curvature="0" />
            </symbol>
            <symbol
               id="textext-baf4f9da-6"
               overflow="visible"
               style="overflow:visible">
              <path
                 id="path3415"
                 d="m 4.84375,-3.796875 c 0.046875,-0.140625 0.046875,-0.15625 0.046875,-0.234375 0,-0.171875 -0.140625,-0.265625 -0.296875,-0.265625 -0.09375,0 -0.25,0.0625 -0.34375,0.203125 -0.015625,0.0625 -0.109375,0.359375 -0.140625,0.546875 -0.078125,0.25 -0.140625,0.53125 -0.203125,0.796875 l -0.453125,1.796875 c -0.03125,0.140625 -0.46875,0.84375 -1.125,0.84375 -0.5,0 -0.609375,-0.4375 -0.609375,-0.8125 C 1.71875,-1.375 1.890625,-2 2.21875,-2.875 2.375,-3.28125 2.421875,-3.390625 2.421875,-3.59375 c 0,-0.4375 -0.3125,-0.8125 -0.8125,-0.8125 -0.953125,0 -1.3125,1.453125 -1.3125,1.53125 0,0.109375 0.09375,0.109375 0.109375,0.109375 0.109375,0 0.109375,-0.03125 0.15625,-0.1875 0.28125,-0.9375 0.671875,-1.234375 1.015625,-1.234375 0.078125,0 0.25,0 0.25,0.3125 0,0.25 -0.109375,0.515625 -0.171875,0.703125 -0.40625,1.0625 -0.578125,1.625 -0.578125,2.09375 0,0.890625 0.625,1.1875 1.21875,1.1875 0.390625,0 0.71875,-0.171875 1,-0.453125 -0.125,0.515625 -0.25,1.015625 -0.640625,1.546875 -0.265625,0.328125 -0.640625,0.625 -1.09375,0.625 -0.140625,0 -0.59375,-0.03125 -0.765625,-0.421875 0.15625,0 0.296875,0 0.421875,-0.125 C 1.328125,1.203125 1.421875,1.0625 1.421875,0.875 1.421875,0.5625 1.15625,0.53125 1.0625,0.53125 0.828125,0.53125 0.5,0.6875 0.5,1.171875 c 0,0.5 0.4375,0.875 1.0625,0.875 1.015625,0 2.046875,-0.90625 2.328125,-2.03125 z"
                 style="stroke:none"
                 inkscape:connector-curvature="0" />
            </symbol>
            <symbol
               id="textext-baf4f9da-7"
               overflow="visible"
               style="overflow:visible">
              <path
                 id="path3418"
                 d=""
                 style="stroke:none"
                 inkscape:connector-curvature="0" />
            </symbol>
            <symbol
               id="textext-baf4f9da-8"
               overflow="visible"
               style="overflow:visible">
              <path
                 id="path3421"
                 d="m 3.515625,-1.265625 -0.234375,0 c -0.015625,0.15625 -0.09375,0.5625 -0.1875,0.625 -0.046875,0.046875 -0.578125,0.046875 -0.6875,0.046875 l -1.28125,0 c 0.734375,-0.640625 0.984375,-0.84375 1.390625,-1.171875 0.515625,-0.40625 1,-0.84375 1,-1.5 0,-0.84375 -0.734375,-1.359375 -1.625,-1.359375 -0.859375,0 -1.453125,0.609375 -1.453125,1.25 0,0.34375 0.296875,0.390625 0.375,0.390625 0.15625,0 0.359375,-0.125 0.359375,-0.375 0,-0.125 -0.046875,-0.375 -0.40625,-0.375 C 0.984375,-4.21875 1.453125,-4.375 1.78125,-4.375 c 0.703125,0 1.0625,0.546875 1.0625,1.109375 0,0.609375 -0.4375,1.078125 -0.65625,1.328125 L 0.515625,-0.265625 C 0.4375,-0.203125 0.4375,-0.1875 0.4375,0 l 2.875,0 z"
                 style="stroke:none"
                 inkscape:connector-curvature="0" />
            </symbol>
          </g>
        </defs>
        <g
           id="textext-baf4f9da-9">
          <g
             id="g3424"
             style="fill:#000000;fill-opacity:1">
            <use
               id="use3426"
               y="134.765"
               x="223.43201"
               xlink:href="#textext-baf4f9da-1"
               width="744.09448"
               height="1052.3622" />
          </g>
          <g
             id="g3428"
             style="fill:#000000;fill-opacity:1">
            <use
               id="use3430"
               y="134.765"
               x="227.306"
               xlink:href="#textext-baf4f9da-4"
               width="744.09448"
               height="1052.3622" />
          </g>
          <g
             id="g3432"
             style="fill:#000000;fill-opacity:1">
            <use
               id="use3434"
               y="136.259"
               x="233"
               xlink:href="#textext-baf4f9da-8"
               width="744.09448"
               height="1052.3622" />
          </g>
          <g
             id="g3436"
             style="fill:#000000;fill-opacity:1">
            <use
               id="use3438"
               y="134.765"
               x="237.47"
               xlink:href="#textext-baf4f9da-5"
               width="744.09448"
               height="1052.3622" />
          </g>
          <g
             id="g3440"
             style="fill:#000000;fill-opacity:1">
            <use
               id="use3442"
               y="134.765"
               x="241.90137"
               xlink:href="#textext-baf4f9da-6"
               width="744.09448"
               height="1052.3622" />
          </g>
          <g
             id="g3444"
             style="fill:#000000;fill-opacity:1">
            <use
               id="use3446"
               y="136.259"
               x="246.782"
               xlink:href="#textext-baf4f9da-8"
               width="744.09448"
               height="1052.3622" />
          </g>
          <g
             id="g3448"
             style="fill:#000000;fill-opacity:1">
            <use
               id="use3450"
               y="134.765"
               x="251.25101"
               xlink:href="#textext-baf4f9da-2"
               width="744.09448"
               height="1052.3622" />
          </g>
        </g>
      </g>
      <path
         style="fill:none;stroke:#000000;stroke-width:0.53149605;stroke-linecap:butt;stroke-linejoin:miter;stroke-miterlimit:4;stroke-opacity:1;stroke-dasharray:none;marker-start:url(#Arrow1Mstart);marker-end:url(#Arrow1Mend)"
         d="m 498.76281,196.94154 8.33376,-25.00127"
         id="path3542"
         inkscape:connector-curvature="0" />
      <text
         xml:space="preserve"
         style="font-size:6.50174713px;font-style:normal;font-weight:normal;line-height:125%;letter-spacing:0px;word-spacing:0px;fill:#000000;fill-opacity:1;stroke:none;font-family:Sans"
         x="-6.021884"
         y="542.68231"
         id="text4942"
         sodipodi:linespacing="125%"
         transform="matrix(0.34857417,-0.9372812,0.9372812,0.34857417,0,0)"><tspan
           sodipodi:role="line"
           id="tspan4944"
           x="-6.021884"
           y="542.68231">width</tspan></text>
    </g>
  </g>
</svg>
