<?xml version="1.0" encoding="UTF-8" standalone="no"?>
<!-- Created with Inkscape (http://www.inkscape.org/) -->

<svg
   xmlns:dc="http://purl.org/dc/elements/1.1/"
   xmlns:cc="http://creativecommons.org/ns#"
   xmlns:rdf="http://www.w3.org/1999/02/22-rdf-syntax-ns#"
   xmlns:svg="http://www.w3.org/2000/svg"
   xmlns="http://www.w3.org/2000/svg"
   xmlns:sodipodi="http://sodipodi.sourceforge.net/DTD/sodipodi-0.dtd"
   xmlns:inkscape="http://www.inkscape.org/namespaces/inkscape"
   width="723.53265"
   height="207.79889"
   id="svg4865"
   version="1.1"
   inkscape:version="0.48.4 r9939"
   sodipodi:docname="score-overview.svg">
  <defs
     id="defs4867">
    <marker
       inkscape:stockid="Arrow1Mend"
       orient="auto"
       refY="0"
       refX="0"
       id="Arrow1Mend"
       style="overflow:visible">
      <path
         id="path3863"
         d="M 0,0 5,-5 -12.5,0 5,5 0,0 z"
         style="fill-rule:evenodd;stroke:#000000;stroke-width:1pt"
         transform="matrix(-0.4,0,0,-0.4,-4,0)"
         inkscape:connector-curvature="0" />
    </marker>
    <marker
       inkscape:stockid="Arrow1Lend"
       orient="auto"
       refY="0"
       refX="0"
       id="Arrow1Lend"
       style="overflow:visible">
      <path
         id="path3857"
         d="M 0,0 5,-5 -12.5,0 5,5 0,0 z"
         style="fill-rule:evenodd;stroke:#000000;stroke-width:1pt"
         transform="matrix(-0.8,0,0,-0.8,-10,0)"
         inkscape:connector-curvature="0" />
    </marker>
  </defs>
  <sodipodi:namedview
     id="base"
     pagecolor="#ffffff"
     bordercolor="#666666"
     borderopacity="1.0"
     inkscape:pageopacity="0.0"
     inkscape:pageshadow="2"
     inkscape:zoom="0.7"
     inkscape:cx="131.85578"
     inkscape:cy="4.3129722"
     inkscape:document-units="px"
     inkscape:current-layer="layer1"
     showgrid="false"
     inkscape:window-width="1366"
     inkscape:window-height="750"
     inkscape:window-x="0"
     inkscape:window-y="18"
     inkscape:window-maximized="0"
     fit-margin-bottom="10"
     fit-margin-top="10"
     fit-margin-left="5"
     fit-margin-right="5" />
  <metadata
     id="metadata4870">
    <rdf:RDF>
      <cc:Work
         rdf:about="">
        <dc:format>image/svg+xml</dc:format>
        <dc:type
           rdf:resource="http://purl.org/dc/dcmitype/StillImage" />
        <dc:title></dc:title>
      </cc:Work>
    </rdf:RDF>
  </metadata>
  <g
     inkscape:label="Layer 1"
     inkscape:groupmode="layer"
     id="layer1"
     transform="translate(-8.4748192,-512.93335)">
    <path
       style="fill:#000000"
       d="m 82.249959,645.22879 c -0.0847,6.16939 -0.3558,10.81469 -0.60246,10.32288 -0.24666,-0.49181 -0.37445,-6.30648 -0.28398,-12.92149 0.15234,-11.13877 0.0911,-12.02726 -0.82942,-12.02675 -0.54666,3e-4 -0.99392,-0.25503 -0.99392,-0.56741 0,-0.31237 0.5215,-0.56795 1.1589,-0.56795 0.6374,0 1.8514,-0.48475 2.69778,-1.07721 0.84638,-0.59247 2.36951,-1.22503 3.38473,-1.40569 1.01521,-0.18066 1.84585,-0.23217 1.84585,-0.11446 0,0.1177 -0.83064,0.74595 -1.84585,1.39611 l -1.84585,1.18212 2.48004,0.01 c 2.20307,0.009 2.44685,-0.11738 2.18279,-1.12712 -0.16348,-0.62518 -0.0655,-0.99347 0.21774,-0.81841 0.28325,0.17505 0.51499,0.68656 0.51499,1.13669 0,0.45012 0.38337,0.81841 0.85193,0.81841 0.46856,0 0.85193,0.25558 0.85193,0.56795 0,0.31238 -0.48382,0.56796 -1.07514,0.56796 -0.59133,0 -1.22669,0.39491 -1.4119,0.87757 -0.18522,0.48267 -1.22667,1.24941 -2.31434,1.70386 -1.08767,0.45448 -2.61933,0.82631 -3.4037,0.82631 l -1.42612,0 -0.154,11.21709 z m 1.03904,-11.78504 c 0.20721,0 1.30145,-0.57506 2.43163,-1.2779 l 2.05488,-1.27789 -2.20468,-0.18074 c -1.21257,-0.0994 -2.4605,0.0751 -2.77319,0.38779 -0.31269,0.31269 -0.41482,0.96907 -0.22696,1.45863 0.18786,0.48956 0.51111,0.89011 0.71832,0.89011 z m 93.371261,8.29739 -0.28398,10.72906 -0.31608,-12.21101 c -0.24955,-9.64056 -0.15363,-12.54593 0.45566,-13.8021 0.42446,-0.8751 1.16318,-1.7413 1.6416,-1.92488 0.70485,-0.27049 0.72616,-0.42489 0.1123,-0.81402 -0.41667,-0.26412 -32.70496,-0.48064 -71.75178,-0.48116 -39.046821,-5.1e-4 -71.569271,0.15317 -72.272111,0.34153 -1.05057,0.28154 -1.2779,0.73983 -1.2779,2.57623 0,1.22858 -0.38601,2.98025 -0.85781,3.89261 -0.47179,0.91234 -1.34952,1.92197 -1.9505,2.24361 -0.60098,0.32163 -1.88784,0.58478 -2.8597,0.58478 -1.11882,0 -2.27841,-0.51138 -3.16109,-1.39407 -0.82688,-0.82688 -1.39407,-2.05158 -1.39407,-3.01015 0,-0.88885 0.3067,-1.92278 0.68155,-2.29763 0.37485,-0.37485 1.21826,-0.68154 1.87425,-0.68154 0.65598,0 1.49939,0.30669 1.87424,0.68154 0.37485,0.37485 0.68155,1.12304 0.68155,1.66264 0,0.5396 -0.65266,1.49447 -1.45035,2.12194 l -1.45035,1.14084 1.2179,0.6518 c 0.90163,0.48254 1.6142,0.48764 2.74399,0.0197 0.83935,-0.34767 1.84413,-1.14139 2.23285,-1.76384 0.38872,-0.62244 0.86364,-2.27623 1.05538,-3.67508 0.34187,-2.49426 0.31695,-2.54478 -1.29047,-2.61563 -0.90148,-0.0397 -4.45044,-0.25176 -7.88656,-0.47116 l -6.24749,-0.39893 4.59768,-0.0968 4.59768,-0.0968 -2.18388,-2.29574 c -1.20113,-1.26265 -2.18387,-2.66833 -2.18387,-3.12374 0,-0.58939 -0.66438,-0.82801 -2.30534,-0.82801 -1.39226,0 -2.16631,-0.22495 -1.95432,-0.56796 0.19306,-0.31237 1.10267,-0.56795 2.02136,-0.56795 1.5559,0 1.67618,-0.15566 1.75554,-2.27182 0.0469,-1.2495 0.11075,-2.59129 0.14198,-2.98175 0.0327,-0.40809 -0.90915,-0.85679 -2.21502,-1.05532 l -2.27181,-0.34537 2.55579,-0.0828 c 2.39119,-0.0774 2.71106,-0.2838 4.96662,-3.20435 l 2.41083,-3.12158 -4.85815,0 c -3.09414,0 -4.73069,-0.20622 -4.50714,-0.56795 0.19306,-0.31238 2.5357,-0.56796 5.20587,-0.56796 3.97486,0 4.7984,-0.14711 4.54341,-0.8116 -0.17129,-0.44637 -0.48266,-1.72427 -0.69193,-2.83976 l -0.38048,-2.02817 -4.16292,0 c -2.28962,0 -4.32089,-0.25558 -4.51395,-0.56796 -0.22291,-0.36069 1.31933,-0.56795 4.22614,-0.56795 l 4.57715,0 0,-2.04399 c 0,-1.1242 0.41668,-2.9221 0.92597,-3.99533 0.50928,-1.07324 1.45324,-2.32065 2.09767,-2.77203 1.07381,-0.75213 1.25724,-0.69117 2.19539,0.72959 0.56303,0.85266 1.25738,2.31703 1.54302,3.25415 0.28563,0.93713 0.67494,2.40671 0.86513,3.26574 0.34195,1.54443 0.39482,1.56137 4.73663,1.51703 2.41495,-0.0246 4.07135,-0.17375 3.68088,-0.3313 -0.39047,-0.15756 -0.70994,-0.74899 -0.70994,-1.31428 0,-0.5653 0.38337,-1.17493 0.85193,-1.35474 0.55002,-0.21105 0.88576,-1.18866 0.9474,-2.75854 l 0.0955,-2.43163 0.22485,2.16447 c 0.17228,1.65842 0.44873,2.12207 1.18242,1.98312 0.65401,-0.12387 1.01345,-0.85505 1.13385,-2.30646 0.097,-1.16881 0.41642,-2.12511 0.70994,-2.12511 0.29351,0 0.53366,0.76674 0.53366,1.70387 0,0.93712 0.25558,1.70386 0.56796,1.70386 0.31237,0 0.56795,0.49607 0.56795,1.10238 0,0.60632 -0.25558,1.26035 -0.56795,1.45341 -0.31238,0.19306 -0.56796,0.84709 -0.56796,1.4534 0,1.06707 0.55384,1.10239 17.28661,1.10239 l 17.2866,0 0.17797,-1.82772 c 0.13036,-1.3387 0.69432,-2.17447 2.10782,-3.12375 1.06141,-0.71281 2.65878,-1.29602 3.54971,-1.29602 l 1.61987,0 0,-11.35908 c 0,-7.19408 0.20825,-11.35907 0.56795,-11.35907 0.36379,0 0.56796,5.20624 0.56796,14.48282 l 0,14.48282 17.890541,0 17.89054,0 0,-5.67954 c 0,-3.40772 0.22718,-5.67953 0.56795,-5.67953 0.31238,0 0.56796,0.60492 0.56796,1.34426 0,0.77628 1.31853,2.99605 3.12058,5.25357 1.71632,2.15012 3.122,4.10099 3.12375,4.33527 0.002,0.23429 19.55497,0.42597 43.45162,0.42597 l 43.44846,0 0,-3.40772 c 0,-1.87425 0.10269,-3.40772 0.22819,-3.40772 0.1255,0 4.91506,-0.89453 10.64347,-1.98784 5.72841,-1.09331 10.60952,-1.98784 10.84691,-1.98784 0.2374,0 0.43162,2.428 0.43162,5.39556 l 0,5.39556 16.45418,0 16.45417,0 0.15847,-7.49763 0.15848,-7.49763 12.49498,-2.41404 c 6.87224,-1.32773 12.94225,-2.42643 13.4889,-2.44156 0.90978,-0.0252 0.99392,0.81393 0.99392,9.91167 l 0,9.93919 32.94132,0 32.94131,0 0,-5.10076 c 0,-4.82601 0.0688,-5.11622 1.2779,-5.38776 0.70284,-0.15785 8.5619,-1.69619 17.46458,-3.41854 8.90268,-1.72236 16.63395,-3.13155 17.1806,-3.13155 0.90241,0 0.99392,0.78432 0.99392,8.5193 l 0,8.51931 160.7309,0 160.73093,0 0,14.48282 0,14.48282 -50.61493,0 -50.6149,0 -1.94058,1.70386 c -1.1601,1.01858 -2.56079,1.69692 -3.48269,1.68659 -1.3218,-0.0148 -1.40012,-0.1 -0.54819,-0.59617 0.54665,-0.3184 0.99392,-1.07737 0.99392,-1.68659 0,-0.90564 -0.39711,-1.10769 -2.17714,-1.10769 -1.19747,0 -2.32997,0.15277 -2.51666,0.33951 -0.18674,0.18672 -0.19378,0.71926 -0.0159,1.18343 0.17811,0.46416 0.86335,1.06192 1.52274,1.32835 0.97932,0.39572 0.80087,0.49103 -0.97461,0.52043 -1.68586,0.0279 -2.55585,-0.34631 -3.87736,-1.66786 l -1.70386,-1.70386 -57.62147,0 c -51.31138,0 -57.65812,0.0956 -57.95642,0.87294 -0.18423,0.48011 -1.05805,1.24685 -1.9418,1.70386 -0.88376,0.457 -2.05175,0.83092 -2.59552,0.83092 -0.9081,0 -0.90288,-0.0628 0.0641,-0.7698 0.64456,-0.47131 0.91378,-1.13198 0.69433,-1.70386 -0.25206,-0.65686 -1.05029,-0.93406 -2.68971,-0.93406 -1.90163,0 -2.29652,0.18055 -2.14263,0.97965 0.10377,0.53881 0.82535,1.30179 1.60352,1.69549 l 1.41486,0.71584 -1.88319,0.008 c -1.03575,0.005 -2.44144,-0.28777 -3.12375,-0.64972 -0.6823,-0.36194 -1.57452,-1.12868 -1.9827,-1.70386 -0.7156,-1.00866 -4.14784,-1.04575 -96.76091,-1.04575 l -96.01898,0 -1.94059,1.70386 c -1.44628,1.26985 -2.5045,1.70386 -4.15437,1.70386 -1.79897,0 -2.2885,-0.23944 -2.61258,-1.27789 -0.21934,-0.70285 -0.68383,-1.46567 -1.03219,-1.69517 -0.34837,-0.2295 -16.40271,-0.42118 -35.67632,-0.42596 -31.79257,-0.008 -35.09093,0.0771 -35.5605,0.91617 -0.35387,0.63232 -0.64286,0.72214 -0.91367,0.28397 -0.21785,-0.35248 -0.87439,-0.64089 -1.45898,-0.64089 -0.65069,0 -1.15834,0.49558 -1.30902,1.2779 -0.21103,1.09567 -0.25716,1.05517 -0.32348,-0.28398 l -0.0773,-1.56187 -10.22317,0 -10.22316,0 0,2.18379 c 0,1.46227 -0.37519,2.52333 -1.13556,3.21146 -0.62456,0.56521 -2.34972,1.3356 -3.83369,1.71196 l -2.69813,0.6843 -0.28397,10.72905 z m 1.92507,-12.10118 c 0.3469,-0.20086 1.71693,-1.10071 3.04453,-1.99969 1.32759,-0.89897 2.4138,-1.9905 2.4138,-2.42562 0,-0.43512 -0.26476,-0.95475 -0.58834,-1.15474 -0.3236,-0.19999 -1.85707,0.45052 -3.40773,1.44557 -1.59594,1.02412 -2.81937,2.23534 -2.81937,2.79123 0,0.54013 0.16344,1.14548 0.36319,1.34524 0.19976,0.19976 0.64702,0.19886 0.99392,-0.002 z m -58.93987,-7.05322 c 47.13305,-0.0362 85.2492,-0.18276 84.70255,-0.32562 -0.54666,-0.14285 -0.99392,-0.72481 -0.99392,-1.29324 0,-0.56842 0.38337,-1.1806 0.85193,-1.36041 0.46856,-0.1798 0.85193,-0.97388 0.85193,-1.76463 l 0,-1.4377 -11.31175,0 c -8.51798,0 -11.3825,0.17533 -11.59821,0.70994 -0.22918,0.56795 -0.29543,0.56795 -0.33131,0 -0.0355,-0.5617 -9.58559,-0.70994 -45.73585,-0.70994 l -45.691011,0 -1.51831,1.40712 c -0.83507,0.77392 -2.38452,1.56962 -3.44321,1.76824 -1.19752,0.22465 -2.24447,0.0959 -2.7706,-0.34076 -0.46514,-0.38603 -0.84571,-1.18174 -0.84571,-1.76824 0,-1.0249 -0.8586,-1.06636 -22.0792,-1.06636 l -22.0792,0 -0.31786,1.5893 c -0.17482,0.87412 -1.00836,2.2798 -1.8523,3.12375 l -1.53445,1.53444 85.696481,-0.0659 z m 87.353,0.0659 c 0.49459,0 0.89926,-0.40467 0.89926,-0.89926 0,-0.4946 -0.30351,-0.7981 -0.67445,-0.67445 -0.37095,0.12365 -0.77561,0.52831 -0.89926,0.89926 -0.12365,0.37095 0.17985,0.67445 0.67445,0.67445 z m 38.075,0 36.03984,0 2.09232,-1.41989 c 1.15077,-0.78093 2.79604,-1.41988 3.65616,-1.41988 0.90208,0 1.70972,-0.38016 1.90858,-0.89839 0.18961,-0.4941 0.34474,-1.26084 0.34474,-1.70386 0,-0.64864 -1.27176,-0.80547 -6.53147,-0.80547 -3.5923,0 -6.53147,0.23473 -6.53147,0.52163 0,0.28689 -0.8608,1.05363 -1.91288,1.70386 -1.05209,0.65023 -2.53445,1.18223 -3.29413,1.18223 -0.75969,0 -1.68794,-0.3067 -2.06279,-0.68155 -0.37485,-0.37485 -0.68155,-1.14158 -0.68155,-1.70386 0,-0.56227 -0.35788,-1.02231 -0.79528,-1.02231 -0.48487,0 -1.06119,1.10841 -1.47653,2.83976 -0.37469,1.56188 -0.93978,2.83977 -1.25577,2.83977 -0.35116,0 -0.42659,-0.78849 -0.19403,-2.02817 0.20927,-1.11549 0.52064,-2.39339 0.69193,-2.83976 0.26664,-0.69485 -2.83863,-0.8116 -21.58628,-0.8116 l -21.89772,0 -1.51831,1.40712 c -0.83507,0.77392 -2.38452,1.56962 -3.44321,1.76824 -1.19752,0.22465 -2.24447,0.0959 -2.7706,-0.34076 -0.46514,-0.38603 -0.84571,-1.18174 -0.84571,-1.76824 0,-0.84007 -0.42185,-1.06636 -1.98784,-1.06636 -1.09331,0 -1.98784,0.25557 -1.98784,0.56795 0,0.31237 0.38337,0.56795 0.85194,0.56795 0.46856,0 0.85193,0.48382 0.85193,1.07514 0,0.59134 -0.38337,1.22226 -0.85193,1.40207 -0.46857,0.1798 -0.85194,0.84609 -0.85194,1.48065 0,1.14755 0.19304,1.15373 36.03984,1.15373 z m 57.38855,0 12.77896,0 0,-3.12375 0,-3.12374 -12.77896,0 -12.77896,0 0,3.12374 0,3.12375 12.77896,0 z m 91.72453,0 77.24171,0 0,-3.12375 0,-3.12374 -76.67375,0 c -60.95574,0 -76.67554,0.14553 -76.68245,0.70994 -0.006,0.47329 -0.19222,0.42596 -0.55926,-0.14199 -0.3908,-0.60471 -0.55309,0.0958 -0.55926,2.4138 l -0.009,3.26574 77.24171,0 z m 83.55864,0 c 3.78207,0 4.72724,-0.20596 6.51606,-1.41989 1.50094,-1.01856 2.85015,-1.41988 4.77357,-1.41988 1.92342,0 3.27264,0.40132 4.77358,1.41988 l 2.09231,1.41989 50.23869,0 50.23868,0 0,-3.12375 0,-3.12374 -61.90696,0 -61.90695,0 0,2.7451 c 0,1.50982 0.17038,2.9155 0.37863,3.12375 0.20825,0.20825 2.36932,0.37864 4.80239,0.37864 z m 10.95833,0 c 1.43171,0 2.60312,-0.26106 2.60312,-0.58013 0,-0.31907 -0.6588,-0.8803 -1.46399,-1.24717 -1.01251,-0.46133 -1.74648,-0.48885 -2.38,-0.0892 -0.50381,0.31779 -1.01642,0.87902 -1.13913,1.24717 -0.14965,0.44894 0.63408,0.66937 2.38,0.66937 z m 109.6624,0 c 0.65399,0 0.85193,-0.72572 0.85193,-3.12375 0,-2.39802 -0.19794,-3.12374 -0.85193,-3.12374 -0.654,0 -0.85193,0.72572 -0.85193,3.12374 0,2.39803 0.19793,3.12375 0.85193,3.12375 z m 8.94527,-0.0126 c 3.21053,-0.01 4.43049,-0.25731 5.53755,-1.12328 0.78093,-0.61086 1.73935,-1.11633 2.12982,-1.12327 0.39047,-0.007 0.70994,-0.26821 0.70994,-0.58059 0,-0.31237 -0.35656,-0.56795 -0.79229,-0.56795 -0.43579,0 -1.39421,-0.63454 -2.12983,-1.41007 -1.18236,-1.24648 -1.81523,-1.41121 -5.45519,-1.41989 l -4.11767,-0.01 0,3.12374 0,3.12375 4.11767,-0.0126 z m 10.6075,0.0126 c 1.27239,0 2.31344,-0.22429 2.31344,-0.49842 0,-0.27412 -0.36928,-0.8049 -0.82069,-1.1795 -0.45135,-0.3746 -1.40716,-0.59758 -2.12398,-0.49551 -0.71687,0.10208 -1.38864,0.63285 -1.4928,1.17951 -0.15534,0.81492 0.22718,0.99392 2.12403,0.99392 z m 54.70718,-0.0126 47.56614,0.0126 0,-3.12375 0,-3.12374 -47.56614,0.01 -47.56613,0.01 -1.33753,1.41007 c -0.73561,0.77554 -1.69404,1.41007 -2.12983,1.41007 -0.43573,0 -0.79229,0.25558 -0.79229,0.56796 0,0.31237 0.31947,0.57364 0.70994,0.58058 0.39047,0.007 1.34889,0.51242 2.12983,1.12328 1.38308,1.08185 2.65325,1.11097 48.98601,1.12327 z m 49.55398,0.0126 c 0.654,0 0.85193,-0.72572 0.85193,-3.12375 0,-2.39802 -0.19793,-3.12374 -0.85193,-3.12374 -0.654,0 -0.85193,0.72572 -0.85193,3.12374 0,2.39803 0.19793,3.12375 0.85193,3.12375 z m -692.477601,-0.5717 c 1.33053,0.002 2.12748,-0.26269 2.12357,-0.7062 -0.003,-0.39047 -0.16467,-1.66836 -0.35829,-2.83977 -0.32562,-1.97004 -0.49559,-2.12982 -2.26556,-2.12982 -1.05244,0 -1.91353,0.17156 -1.91353,0.38124 0,0.20968 0.4244,0.8502 0.94311,1.42337 0.51871,0.57316 0.78181,1.20342 0.58467,1.40056 -0.19715,0.19715 -1.10746,-0.44337 -2.02291,-1.42336 -0.91546,-0.98 -2.20087,-1.78181 -2.85648,-1.78181 -0.65561,0 -1.18296,0.19168 -1.17189,0.42596 0.0111,0.23428 0.34778,1.01642 0.74824,1.73808 0.40046,0.72166 1.47761,1.80618 2.39368,2.41006 0.91605,0.60387 2.62398,1.09963 3.79539,1.10169 z m 3.86225,-0.56421 c 0.26123,0 0.87284,-0.56803 1.35912,-1.26228 0.48627,-0.69425 0.88413,-1.84436 0.88413,-2.5558 0,-1.05859 -0.30944,-1.2935 -1.70386,-1.2935 -1.50393,0 -1.70386,0.19447 -1.70386,1.6574 0,0.91158 0.15513,2.06169 0.34474,2.5558 0.18961,0.49411 0.55849,0.89838 0.81973,0.89838 z m 585.502081,-2.38692 c 1.00545,-0.11713 1.50513,-0.5604 1.63105,-1.44677 0.16544,-1.16526 -0.0471,-1.27789 -2.4138,-1.27789 -1.42744,0 -2.59533,0.17156 -2.59533,0.38124 0,0.20968 0.43392,0.86073 0.96428,1.44677 0.57778,0.63843 1.54529,0.99783 2.4138,0.89665 z M 206.6133,618.57009 c 0.54307,-0.10458 1.07297,-0.63448 1.17755,-1.17755 0.13125,-0.68154 -0.1746,-0.98739 -0.9874,-0.98739 -0.81279,0 -1.17755,0.36475 -1.17755,1.17755 0,0.81279 0.30586,1.11865 0.9874,0.98739 z M 24.164689,615.26924 c 1.10741,0 1.41988,-0.2906 1.41988,-1.32051 0,-0.72628 0.44727,-1.76035 0.99392,-2.29793 0.54666,-0.53757 1.50508,-1.34089 2.12983,-1.78516 1.07998,-0.768 1.04731,-0.80866 -0.66349,-0.82583 -0.98967,-0.01 -2.21312,0.1407 -2.71879,0.33474 -0.50566,0.19404 -1.2933,1.07587 -1.75031,1.95963 -0.45701,0.88376 -0.83093,2.13069 -0.83093,2.77095 0,0.86308 0.36717,1.16411 1.41989,1.16411 z m 4.51386,0 c 1.8494,0 2.07521,-0.15067 1.91512,-1.2779 -0.11464,-0.80717 -0.5744,-1.27789 -1.24812,-1.27789 -0.58665,0 -1.44846,0.57505 -1.91513,1.27789 -0.82843,1.24768 -0.79891,1.2779 1.24813,1.2779 z m 4.97094,0 c 1.09459,0 1.60267,-0.24875 1.4501,-0.70994 -0.12917,-0.39047 -0.90271,-1.08651 -1.71899,-1.54675 -0.81627,-0.46024 -1.61628,-0.70466 -1.77779,-0.54315 -0.1615,0.16151 -0.14619,0.85754 0.034,1.54674 0.24501,0.93693 0.75282,1.2531 2.01264,1.2531 z m 10.39358,0 6.53147,0 0,-1.37932 c 0,-0.75862 -0.33378,-1.71705 -0.74172,-2.12982 -0.40795,-0.41279 -0.91109,-1.19778 -1.11809,-1.74443 -0.32822,-0.86681 -1.20803,-0.99392 -6.8792,-0.99392 -3.57656,0 -6.86888,0.14046 -7.31627,0.31214 -0.60938,0.23384 -0.33609,0.78946 1.08946,2.21502 1.04658,1.04658 1.90288,2.3118 1.90288,2.8116 0,0.78032 0.92293,0.90873 6.53147,0.90873 z m 22.77055,0 c 14.81115,0 15.75038,-0.0623 17.11521,-1.13591 0.79429,-0.62479 2.30406,-1.13591 3.35532,-1.13591 1.53987,0 1.91124,-0.22326 1.91124,-1.149 0,-1.08539 -0.0762,-1.09907 -1.37647,-0.2471 -0.82594,0.54117 -2.24567,0.83036 -3.54971,0.72303 -1.72125,-0.14166 -2.20941,-0.43259 -2.34714,-1.39886 -0.0979,-0.68699 -0.71827,-1.36597 -1.41989,-1.55412 -0.68529,-0.18376 -5.84641,-0.33479 -11.46915,-0.33562 -5.62274,-5.7e-4 -11.18159,0.15692 -12.35299,0.35054 -2.0335,0.33611 -2.12983,0.45142 -2.12983,2.54954 0,1.20862 -0.25558,2.1975 -0.56795,2.1975 -0.31238,0 -0.56795,-0.89453 -0.56795,-1.98784 0,-1.09331 -0.10689,-1.98784 -0.23753,-1.98784 -0.13064,0 -0.6418,0.15514 -1.13591,0.34475 -0.60632,0.23266 -0.89838,1.06353 -0.89838,2.55579 l 0,2.21105 15.67113,0 z m 55.233181,0 31.71551,0 0.69837,-2.33094 c 0.3841,-1.28201 0.83526,-2.68769 1.00259,-3.12374 0.25523,-0.66511 -1.93051,-0.79281 -13.57022,-0.79281 l -13.87446,0 -2.231,1.68806 c -1.55707,1.17814 -2.88927,1.69283 -4.41016,1.70386 -1.90598,0.0138 -2.25979,-0.1978 -2.8223,-1.68806 l -0.64314,-1.70386 -12.89196,0 c -7.090591,0 -13.296241,0.15513 -13.790351,0.34474 -0.64983,0.24936 -0.89838,1.11359 -0.89838,3.12374 l 0,2.77901 31.715501,0 z m 45.81018,0 12.77896,0 0,-1.41989 c 0,-1.22123 0.25644,-1.41988 1.83294,-1.41988 l 1.83294,0 -1.56099,-1.56187 -1.561,-1.56188 -12.27746,0 -12.27745,0 -0.76483,2.5558 c -0.42065,1.40568 -0.76871,2.74747 -0.77345,2.98175 -0.004,0.23428 5.74191,0.42597 12.77034,0.42597 z m 16.57912,-0.009 c 1.60591,-0.006 1.94383,-0.15057 1.31142,-0.55926 -0.46856,-0.30281 -1.28411,-0.55448 -1.81233,-0.55926 -0.52822,-0.005 -1.11836,0.24689 -1.31141,0.55926 -0.21085,0.34115 0.51286,0.56448 1.81232,0.55926 z m 11.05545,-0.012 c 7.77529,0.0193 8.30632,-0.0475 8.05386,-1.0129 -0.14866,-0.56847 0.13084,-1.3665 0.62112,-1.7734 0.49028,-0.40691 0.89142,-1.34748 0.89142,-2.09017 l 0,-1.35034 -8.37732,0.006 c -4.60752,0.003 -9.33574,0.16467 -10.50714,0.35829 -1.17141,0.19362 -2.12983,0.66082 -2.12983,1.0382 0,0.37739 0.70284,1.61253 1.56187,2.74476 l 1.56188,2.05859 8.32414,0.0207 z m 11.23674,0.0207 c 0.64318,0 1.16943,-0.25558 1.16943,-0.56796 0,-0.31237 -0.36829,-0.56795 -0.81841,-0.56795 -0.45013,0 -0.97637,0.25558 -1.16943,0.56795 -0.19306,0.31238 0.17522,0.56796 0.81841,0.56796 z m 4.62955,0 c 1.46424,0 2.85855,-0.4203 3.7683,-1.13591 0.79429,-0.62479 2.30406,-1.13591 3.35532,-1.13591 1.80937,0 1.91124,-0.10705 1.91124,-2.0084 l 0,-2.0084 -5.49151,0.16255 c -3.76747,0.11152 -5.5654,0.38544 -5.72687,0.8725 -0.12944,0.39046 0.16931,0.70994 0.66391,0.70994 0.49459,0 0.89926,0.39139 0.89926,0.86975 0,0.47837 -0.38337,1.01687 -0.85193,1.19667 -0.46857,0.17981 -0.85194,0.81074 -0.85194,1.40207 0,0.87973 0.42243,1.07514 2.32422,1.07514 z m 16.41826,0 6.24749,0 0,-1.44701 c 0,-0.81392 0.62121,-2.02272 1.41988,-2.7629 0.78094,-0.72375 1.41989,-1.47828 1.41989,-1.67675 0,-0.19846 -3.45032,-0.36083 -7.66738,-0.36083 l -7.66737,0 0,3.12374 0,3.12375 6.24749,0 z m 25.17494,0 c 11.88594,0 12.87799,-0.0766 12.87833,-0.99392 2.9e-4,-0.76999 -0.47956,-0.99392 -2.12982,-0.99392 -1.90165,0 -2.14949,-0.16757 -2.30992,-1.56187 -0.10184,-0.88512 0.0972,-1.56188 0.45948,-1.56188 0.35157,0 0.48125,-0.25557 0.28819,-0.56795 -0.21166,-0.34247 -4.17089,-0.56795 -9.97271,-0.56795 l -9.6217,0 0,1.80924 c 0,1.07592 -0.50053,2.34204 -1.2349,3.12375 l -1.23492,1.3145 12.87797,0 z m 14.85499,0 c 0.53215,0 1.61738,-0.51116 2.41162,-1.13591 0.79429,-0.62479 2.30406,-1.13591 3.35532,-1.13591 1.80564,0 1.91124,-0.10983 1.91124,-1.98784 l 0,-1.98783 -3.38774,0 c -2.65858,0 -3.50343,0.21617 -3.92527,1.00437 -0.29563,0.55241 -0.71643,1.95809 -0.93511,3.12375 -0.33269,1.77339 -0.23966,2.11937 0.56994,2.11937 z m 15.06158,0 6.30685,0 -0.17167,-2.98176 -0.17167,-2.98176 -5.96351,0 -5.96351,0 -0.17167,2.98176 -0.17167,2.98176 6.30685,0 z m 19.56472,0 12.80864,0 0,-3.12375 0,-3.12374 -6.03052,0 c -5.89071,0 -6.07552,0.0395 -7.97112,1.70386 -1.44068,1.26494 -2.50641,1.70386 -4.13708,1.70386 -1.94035,0 -2.26727,-0.20303 -2.80344,-1.74108 -0.53283,-1.52848 -0.83436,-1.7192 -2.46936,-1.56187 -1.81986,0.17511 -1.86634,0.24734 -2.03409,3.16096 l -0.17167,2.98176 12.80864,0 z m 17.74472,-0.009 c 1.6059,-0.006 1.94382,-0.15057 1.31141,-0.55926 -0.46856,-0.30281 -1.28411,-0.55448 -1.81233,-0.55926 -0.52822,-0.005 -1.11835,0.24689 -1.31141,0.55926 -0.21085,0.34115 0.51287,0.56448 1.81233,0.55926 z m 21.84656,-0.012 c 18.73887,0.0203 19.10951,-10e-4 18.8229,-1.09733 -0.19614,-0.75004 0.2887,-1.6991 1.47306,-2.88346 0.97098,-0.97101 1.76542,-1.87358 1.76542,-2.00573 0,-0.13217 -9.96758,-0.24029 -22.15019,-0.24029 -21.12504,0 -22.1502,0.0483 -22.1502,1.04445 0,0.57445 0.70284,1.97082 1.56187,3.10305 l 1.56188,2.05859 19.11526,0.0207 z m 27.04266,0.0207 c 0.99841,0 1.84898,-0.35529 2.03956,-0.85193 0.1798,-0.46856 0.84609,-0.85193 1.48065,-0.85193 0.6469,0 1.15373,0.37424 1.15373,0.85193 0,0.75067 5.80575,0.85193 48.84402,0.85193 l 48.84402,0 0,-3.08458 0,-3.08458 -50.96426,0.10283 -50.96426,0.10281 -0.34131,2.10007 c -0.18772,1.15503 -0.67059,2.49682 -1.07305,2.98176 -0.6339,0.7638 -0.50275,0.88169 0.9809,0.88169 z m 165.37516,0 61.93664,0 0,-3.12375 0,-3.12374 -50.28173,0 c -44.7087,0 -50.31886,0.0968 -50.61671,0.87294 -0.18423,0.48011 -1.05805,1.24685 -1.94181,1.70386 -0.88376,0.457 -2.05174,0.83092 -2.59552,0.83092 -0.90809,0 -0.90287,-0.0628 0.0641,-0.7698 0.64455,-0.47131 0.91378,-1.13199 0.69433,-1.70386 -0.25206,-0.65686 -1.05029,-0.93406 -2.68972,-0.93406 -1.90162,0 -2.29651,0.18055 -2.14262,0.97965 0.10377,0.53881 0.82535,1.30178 1.60352,1.69549 l 1.41485,0.71584 -1.88318,0.008 c -1.03576,0.005 -2.43086,-0.28473 -3.10023,-0.64296 -0.66938,-0.35824 -1.61099,-1.13716 -2.09249,-1.73093 -0.75206,-0.92742 -1.51584,-1.05575 -5.41908,-0.91053 l -4.54363,0.16905 -0.17167,2.98176 -0.17167,2.98176 61.93664,0 z m 58.45184,-1.25654 c -0.50371,0.097 -1.05826,-0.19453 -1.23223,-0.64789 -0.17396,-0.45336 -0.16351,-0.97706 0.0233,-1.16379 0.18668,-0.18673 0.82677,-0.3395 1.42238,-0.3395 0.72289,0 1.01965,0.32826 0.89271,0.98739 -0.10456,0.54307 -0.60231,1.06677 -1.10609,1.16379 z m 5.44293,1.25654 c 0.6916,0 0.88164,-0.68353 0.88164,-3.17108 0,-2.283 -0.19884,-3.10555 -0.70995,-2.93711 -0.41386,0.13639 -0.7815,1.45881 -0.88163,3.17107 -0.13733,2.34981 0.006,2.93712 0.70994,2.93712 z m 9.18455,0 c 2.9934,0 4.67136,-0.25652 5.28328,-0.80768 0.49315,-0.44423 1.66336,-0.98838 2.60049,-1.20924 1.40364,-0.33079 1.57874,-0.26853 0.99392,0.35332 -0.39047,0.41518 -0.70995,0.95934 -0.70995,1.20923 0,0.2499 1.02232,0.45437 2.27182,0.45437 1.2495,0 2.27181,-0.20824 2.27181,-0.46277 0,-0.25451 -0.90321,-0.89346 -2.00709,-1.41988 -1.10393,-0.52641 -2.40148,-0.95712 -2.8835,-0.95712 -0.48196,0 -1.65405,-0.77772 -2.60458,-1.72826 -1.62491,-1.62491 -1.95347,-1.71831 -5.49387,-1.56187 l -3.76559,0.16638 -0.17169,2.98176 -0.17164,2.98176 4.38659,0 z m 64.74866,0 47.92259,0 0,-3.12375 0,-3.12374 -47.2072,0 -47.20718,0 -1.94058,1.70386 c -1.1601,1.01858 -2.56079,1.69691 -3.48269,1.68659 -1.3218,-0.0148 -1.40012,-0.1 -0.54819,-0.59618 0.54665,-0.31839 0.99392,-1.07736 0.99392,-1.68659 0,-0.90563 -0.39711,-1.10768 -2.17714,-1.10768 -1.19747,0 -2.33855,0.16139 -2.5358,0.35865 -0.19731,0.19726 -0.10308,0.83621 0.20929,1.41988 0.31238,0.58368 0.94229,1.06124 1.39989,1.06124 0.45755,0 0.83194,0.22291 0.83194,0.49536 0,0.27245 0.98915,0.65353 2.19804,0.84685 1.20895,0.19331 2.51814,0.73714 2.90934,1.20849 0.62379,0.75166 6.60252,0.85702 48.63377,0.85702 z m 49.88073,0 c 0.69159,0 0.88163,-0.68353 0.88163,-3.17108 0,-2.283 -0.19884,-3.10555 -0.70994,-2.93711 -0.41387,0.13639 -0.7815,1.45881 -0.88163,3.17107 -0.13734,2.34981 0.006,2.93712 0.70994,2.93712 z m -402.39566,-2.69179 c 0.13962,-0.1 -0.43543,-0.8711 -1.27789,-1.71357 l -1.53176,-1.53175 0,1.50946 c 0,1.12626 0.32442,1.56128 1.2779,1.71357 0.70284,0.11225 1.39213,0.12228 1.53175,0.0223 z m -54.25337,-0.4931 c 0.44441,-0.17054 0.96394,-0.71642 1.15452,-1.21306 0.19058,-0.49664 0.10127,-1.14823 -0.19848,-1.44798 -0.29974,-0.29974 -1.21335,-0.37724 -2.03023,-0.17221 -1.33815,0.33585 -1.39852,0.4595 -0.60954,1.24848 0.48164,0.48164 0.87571,1.10501 0.87571,1.38527 0,0.28026 0.36361,0.37003 0.80802,0.1995 z m -58.3998,-0.60612 c 0.43802,-0.16808 0.79641,-0.66163 0.79641,-1.09677 0,-0.43515 -0.51116,-0.79117 -1.13591,-0.79117 -0.62475,0 -1.13591,0.34077 -1.13591,0.75727 0,0.4165 0.15278,0.91005 0.33951,1.09678 0.18672,0.18672 0.69788,0.20198 1.1359,0.0339 z M 27.254909,608.45378 c 1.27933,0 1.73509,-0.26204 1.72869,-0.99392 -0.005,-0.54665 -0.21528,-1.31943 -0.46778,-1.71728 -0.35525,-0.55975 -0.6549,-0.49552 -1.3248,0.28398 -0.47615,0.55403 -1.04747,1.32681 -1.2696,1.71728 -0.28516,0.50125 0.10682,0.70994 1.33349,0.70994 z m 13.07517,-0.12937 c 9.66715,-0.15005 9.96555,-0.19015 10.13269,-1.3617 0.0947,-0.66391 -0.22475,-1.60408 -0.70994,-2.08927 -0.48518,-0.48518 -0.88215,-1.28378 -0.88215,-1.77465 0,-0.49087 -0.36207,-0.8925 -0.80461,-0.8925 -0.44252,0 -0.95368,0.31948 -1.1359,0.70994 -0.26505,0.56796 -0.39757,0.56796 -0.66261,0 -0.18223,-0.39046 -0.8034,-0.70994 -1.38039,-0.70994 -0.63637,0 -1.14591,0.50273 -1.29521,1.2779 l -0.24613,1.27789 -0.0774,-1.27789 c -0.0754,-1.24632 -0.23803,-1.2779 -6.58059,-1.2779 -5.34734,0 -6.59286,0.16014 -7.00743,0.90094 -0.30197,0.53957 -0.26487,1.79755 0.0925,3.13636 l 0.59667,2.23542 9.96047,-0.1546 z m 28.39375,0.12937 13.03772,0 2.15505,-1.46307 c 1.4192,-0.9635 2.68835,-1.38495 3.71692,-1.23428 1.43789,0.21065 1.56187,0.0782 1.56187,-1.669 l 0,-1.8978 -17.1806,0.15032 -17.1806,0.15032 -0.17628,2.12983 c -0.10203,1.2329 0.0773,2.12982 0.42597,2.12982 0.33124,0 0.60224,0.38337 0.60224,0.85193 0,0.73253 1.82727,0.85193 13.03771,0.85193 z m 35.781091,0 14.17362,0 2.15505,-1.46307 c 1.4192,-0.9635 2.68835,-1.38495 3.71692,-1.23428 1.43672,0.21047 1.56187,0.0774 1.56187,-1.66066 l 0,-1.88948 -17.89054,0 -17.890541,0 0,3.12375 0,3.12374 14.173621,0 z m 37.22619,0 c 12.22508,0 14.48282,-0.12746 14.48282,-0.81765 0,-0.53485 -0.7366,-0.8786 -2.12983,-0.99391 -1.84279,-0.15252 -2.12982,-0.36658 -2.12982,-1.58838 0,-0.93998 0.36387,-1.48218 1.08833,-1.6217 0.64931,-0.12505 1.48686,0.31874 2.07627,1.10013 0.84167,1.11583 1.12199,1.19847 1.89342,0.55824 0.49802,-0.41332 0.90549,-0.65461 0.90549,-0.53621 0,0.11841 -0.23774,1.04423 -0.52831,2.05738 l -0.52831,1.8421 11.89539,0 11.89539,0 1.6792,-1.84585 c 0.92357,-1.01521 1.6867,-2.4209 1.69586,-3.12374 l 0.0166,-1.2779 -28.39768,0 -28.39769,0 0,3.12375 0,3.12374 14.48282,0 z m 54.69406,-0.0239 c 9.54695,-0.0456 11.47255,-0.19111 11.47255,-0.86733 0,-0.44694 0.25558,-0.81261 0.56795,-0.81261 0.31238,0 0.56795,0.38337 0.56795,0.85193 0,0.70048 1.0097,0.85193 5.67954,0.85193 l 5.67954,0 0,-3.12374 0,-3.12375 -17.70557,0 -17.70557,0 1.23491,1.3145 c 0.6792,0.72298 1.23491,1.53714 1.23491,1.80925 0,0.27211 -0.56222,1.0932 -1.24938,1.82464 l -1.24937,1.3299 11.47254,-0.0548 z m 35.04263,0.0239 9.93919,0 0,-3.12374 0,-3.12375 -9.93919,0 -9.93919,0 0,3.12375 0,3.12374 9.93919,0 z m 23.57008,0 c 10.49516,0 12.49498,-0.13086 12.49498,-0.81765 0,-0.53485 -0.7366,-0.8786 -2.12983,-0.99391 -1.84617,-0.1528 -2.12982,-0.36538 -2.12982,-1.59616 0,-1.0534 0.34052,-1.46813 1.31931,-1.6068 0.94838,-0.13436 1.40614,0.14509 1.62812,0.99392 0.16984,0.64946 0.50327,1.18083 0.74097,1.18083 0.23768,0 0.67936,-0.31947 0.98149,-0.70994 0.30214,-0.39047 0.70878,-1.1572 0.90365,-1.70386 0.33097,-0.92842 -0.52405,-0.99392 -12.97476,-0.99392 l -13.3291,0 0,3.12375 0,3.12374 12.49499,0 z m 16.9754,0 3.47093,0 0,-3.12374 0,-3.12375 -2.80149,0 c -2.17824,0 -2.86645,0.22112 -3.09347,0.99392 -0.16058,0.54666 -0.46183,1.95234 -0.66943,3.12375 l -0.37747,2.12982 3.47093,0 z m 10.88401,0 6.27717,0 -0.17167,-2.98175 -0.17167,-2.98176 -6.1055,-0.1612 -6.1055,-0.16121 0,3.14296 0,3.14296 6.27717,0 z m 9.11189,0 c 1.41342,0 2.95018,-0.44436 3.91659,-1.1325 0.87475,-0.62288 2.57547,-1.33716 3.77937,-1.5873 1.82208,-0.37857 2.18892,-0.68848 2.18892,-1.84925 0,-1.38417 -0.045,-1.39565 -6.1055,-1.55566 l -6.10551,-0.16121 0,3.14296 0,3.14296 2.32613,0 z m 16.9843,0 6.24749,0 0,-3.12374 0,-3.12375 -6.24749,0 -6.24749,0 0,3.12375 0,3.12374 6.24749,0 z m 35.44386,0 24.25065,0 -0.17167,-2.98175 -0.17167,-2.98176 -23.80581,-0.14829 c -22.68368,-0.14131 -23.76529,-0.10116 -22.94652,0.85193 0.4726,0.55012 1.04033,1.31856 1.26161,1.70765 0.23671,0.41622 -0.22947,1.29297 -1.13246,2.12983 l -1.53479,1.42239 24.25066,0 z m 39.11351,0 c 11.90023,0 13.55587,-0.10715 13.26749,-0.85866 -0.18123,-0.47226 -0.0614,-1.44717 0.26637,-2.16645 0.32773,-0.71929 1.2793,-1.73178 2.11459,-2.24997 1.43726,-0.89166 0.67352,-0.94299 -14.24201,-0.95729 l -15.76071,-0.0151 0,2.74511 c 0,1.50981 0.17038,2.9155 0.37864,3.12374 0.20824,0.20825 6.49728,0.37864 13.97563,0.37864 z m 24.08687,-0.0181 5.21585,0.0181 0.17971,-1.56187 0.17971,-1.56187 4.82761,0 4.8276,0 0.17972,1.56187 0.17971,1.56187 24.10031,0 24.10031,0 0,-3.12374 0,-3.12375 -32.94132,0 c -32.91213,0 -32.94131,10e-4 -32.94131,1.17325 0,0.64528 -0.29733,1.73149 -0.66073,2.4138 -0.3634,0.68231 -1.06624,1.55191 -1.56187,1.93244 -0.72858,0.55939 0.0977,0.69533 4.3147,0.70994 z m 70.15568,0.0181 c 3.74683,0 4.75224,-0.20721 6.20041,-1.27789 1.32767,-0.98159 2.49653,-1.2779 5.041,-1.2779 2.54448,0 3.71334,0.29631 5.04101,1.2779 l 1.72844,1.27789 50.28691,0 50.2869,0 0,-3.12374 0,-3.12375 -61.90696,0 -61.90695,0 0,2.74511 c 0,1.50981 0.17038,2.9155 0.37863,3.12375 0.20825,0.20825 2.39102,0.37863 4.85061,0.37863 z m 115.21045,-1.70386 c -0.60629,0 -1.22837,-0.20389 -1.38239,-0.45308 -0.15403,-0.2492 -0.0671,-0.7976 0.19316,-1.21867 0.26023,-0.42107 0.88231,-0.60858 1.3824,-0.41667 0.50008,0.1919 0.90923,0.7403 0.90923,1.21866 0,0.48231 -0.49111,0.86976 -1.1024,0.86976 z m -104.27299,1.70386 c 1.41667,0 2.57577,-0.24659 2.57577,-0.54797 0,-0.30138 -0.49436,-0.81254 -1.09857,-1.13591 -0.60421,-0.32336 -1.48975,-0.58793 -1.96785,-0.58793 -0.47811,0 -1.14286,0.51116 -1.47721,1.13591 -0.56638,1.05829 -0.43192,1.1359 1.96786,1.1359 z m 109.63505,0 c 0.65399,0 0.85193,-0.72572 0.85193,-3.12374 0,-2.39803 -0.19794,-3.12375 -0.85193,-3.12375 -0.654,0 -0.85193,0.72572 -0.85193,3.12375 0,2.39802 0.19793,3.12374 0.85193,3.12374 z m 8.85758,0 c 3.20348,0 4.37898,-0.24848 5.73144,-1.21152 0.93576,-0.66634 2.83807,-1.33963 4.22734,-1.49622 1.72397,-0.19432 3.24012,0.0374 4.7757,0.72982 1.2374,0.55799 2.24983,1.23129 2.24983,1.49622 0,0.26494 21.59644,0.4817 47.99209,0.4817 l 47.99211,0 0,-3.12374 0,-3.12375 -58.49925,0 -58.49924,0 0,3.12375 0,3.12374 4.02998,0 z m 10.69519,0 c 1.27239,0 2.31344,-0.22428 2.31344,-0.49841 0,-0.27412 -0.36928,-0.8049 -0.82069,-1.1795 -0.45135,-0.3746 -1.40716,-0.59758 -2.12398,-0.49551 -0.71687,0.10207 -1.38864,0.63285 -1.4928,1.1795 -0.15534,0.81493 0.22718,0.99392 2.12403,0.99392 z m 104.26116,0 c 0.654,0 0.85193,-0.72572 0.85193,-3.12374 0,-2.39803 -0.19793,-3.12375 -0.85193,-3.12375 -0.654,0 -0.85193,0.72572 -0.85193,3.12375 0,2.39802 0.19793,3.12374 0.85193,3.12374 z M 52.099209,607.78793 c 0.74143,-0.1406 1.08146,-0.80627 1.2103,-2.36943 0.15188,-1.84273 0.0221,-2.14413 -0.85193,-1.9784 -0.74143,0.14059 -1.08146,0.80627 -1.2103,2.36943 -0.15188,1.84273 -0.0221,2.14413 0.85193,1.9784 z m 266.265511,-1.60596 c 0.78093,-0.73366 1.41988,-1.92831 1.41988,-2.65479 0,-1.03031 -0.31236,-1.32089 -1.41988,-1.32089 -1.31204,0 -1.41989,0.20165 -1.41989,2.65479 l 0,2.6548 1.41989,-1.33391 z M 37.093979,601.02554 c 3.19725,-0.0246 5.49371,-0.17374 5.10324,-0.3313 -0.39047,-0.15756 -0.70994,-0.61725 -0.70994,-1.02153 0,-0.40428 0.38337,-1.05322 0.85193,-1.44209 0.46856,-0.38888 0.85193,-1.18691 0.85193,-1.77341 0,-0.95955 -0.48358,-1.06636 -4.82761,-1.06636 -4.21828,0 -4.82787,0.12545 -4.82973,0.99392 -0.001,0.54665 -0.50857,1.82455 -1.12756,2.83977 l -1.12543,1.84584 5.81317,-0.0449 z m 7.7675,0.0449 c 0.64318,0 1.16943,-0.25558 1.16943,-0.56795 0,-0.31238 -0.36829,-0.56795 -0.81841,-0.56795 -0.45013,0 -0.97637,0.25557 -1.16943,0.56795 -0.19306,0.31237 0.17522,0.56795 0.81841,0.56795 z m 3.97491,0 c 1.51104,0 1.69073,-0.20223 1.89236,-2.12982 l 0.22279,-2.12983 0.0955,2.12983 c 0.0525,1.1714 0.20236,2.12982 0.33299,2.12982 0.13065,0 0.6418,-0.15513 1.13591,-0.34474 0.60951,-0.23389 0.89839,-1.06649 0.89839,-2.58931 0,-1.35175 0.22591,-2.10495 0.56795,-1.89355 0.31237,0.19306 0.56795,0.99313 0.56795,1.77795 0,0.78481 0.36512,1.79204 0.81136,2.23829 0.66598,0.66597 3.77014,0.81136 17.32259,0.81136 l 16.51123,0 0,-2.83977 0,-2.83976 -21.01429,0 c -13.63089,0 -21.01429,0.19955 -21.01429,0.56795 0,0.31237 0.25558,0.56795 0.56796,0.56795 0.31237,0 0.56795,0.51116 0.56795,1.13591 0,0.62475 -0.25558,1.13591 -0.56795,1.13591 -0.31238,0 -0.56796,0.51116 -0.56796,1.13591 0,0.8783 0.37864,1.1359 1.66958,1.1359 z m 59.385451,0 17.89054,0 0,-2.83977 0,-2.83976 -17.89054,0 -17.890541,0 0,2.83976 0,2.83977 17.890541,0 z m 21.31232,0 c 1.93114,0 2.37183,-0.22608 2.83977,-1.45685 0.30464,-0.80127 0.5539,-2.07917 0.5539,-2.83977 0,-1.28086 -0.20957,-1.38291 -2.83977,-1.38291 l -2.83977,0 0,2.83976 0,2.83977 2.28587,0 z m 28.39769,0 c 19.04707,0 24.9759,-0.16178 24.9759,-0.68154 0,-0.53009 0.15146,-0.53009 0.68155,0 0.50151,0.50151 5.45235,0.68154 18.74247,0.68154 l 18.06093,0 0,-2.83977 0,-2.83976 -43.16448,0 -43.16449,0 0,1.38291 c 0,0.7606 -0.24925,2.0385 -0.55389,2.83977 l -0.5539,1.45685 24.97591,0 z m 73.53595,0 9.93919,0 0,-2.83977 0,-2.83976 -3.46481,0 c -1.90564,0 -6.37828,0.54853 -9.93919,1.21896 -6.45663,1.21562 -6.47438,1.22341 -6.47438,2.83977 l 0,1.6208 9.93919,0 z m 24.42201,0 c 9.38957,0 13.34691,-0.18665 13.34691,-0.62952 0,-0.37628 -0.53425,-0.49544 -1.32805,-0.29621 -0.73043,0.18333 -1.78054,0.002 -2.33358,-0.40193 -0.55304,-0.40439 -0.91122,-1.22952 -0.79597,-1.83362 0.12064,-0.63236 0.76684,-1.17767 1.52307,-1.28529 0.94256,-0.13413 1.40072,0.14657 1.62231,0.99392 0.16984,0.64946 0.66236,1.18084 1.09448,1.18084 0.43213,0 0.78569,-0.25558 0.78569,-0.56796 0,-0.31237 0.24919,-0.56795 0.55376,-0.56795 0.31237,0 0.40521,0.74271 0.21298,1.70386 -0.33934,1.6967 -0.32973,1.70386 2.28601,1.70386 l 2.62679,0 0,-2.83977 0,-2.83976 -16.47066,0 -16.47066,0 0,2.83976 0,2.83977 13.34692,0 z m 26.9778,0 6.24749,0 0,-2.83977 0,-2.83976 -4.96959,0.008 c -2.73328,0.004 -5.54465,0.16186 -6.2475,0.35022 -1.07878,0.2891 -1.27789,0.73036 -1.27789,2.83201 l 0,2.48955 6.24749,0 z m 13.06294,0 6.24749,0 0,-2.83977 0,-2.83976 -6.24749,0 -6.2475,0 0,2.83976 0,2.83977 6.2475,0 z m 13.06293,0 6.24749,0 0,-2.83977 0,-2.83976 -6.24749,0 -6.24749,0 0,2.83976 0,2.83977 6.24749,0 z m 33.79325,-0.0115 25.84189,0.0311 0,-2.84958 0,-2.84958 -25.84189,0 -25.8419,0 0,2.81849 0,2.81849 25.8419,0.0311 z m 44.01641,0.0115 17.60657,0 0,-2.83977 0,-2.83976 -17.60657,0 -17.60656,0 0,2.83976 0,2.83977 17.60656,0 z m 51.68379,0 32.94132,0 0,-2.83977 0,-2.83976 -32.94132,0 -32.94131,0 0,2.83976 0,2.83977 32.94131,0 z m 39.8263,0 c 5.02359,0 5.66063,-0.10657 5.04817,-0.84455 -0.38551,-0.46451 -0.55015,-1.44529 -0.36587,-2.17952 0.18428,-0.73422 0.91567,-1.61477 1.62529,-1.95677 1.01724,-0.49024 -0.1218,-0.62995 -5.38321,-0.66025 l -6.67345,-0.0385 0,2.83977 0,2.83977 5.74907,0 z m 11.46649,-0.10861 c 1.47877,-0.1432 1.84268,-0.44972 1.98424,-1.67134 0.12449,-1.07428 -0.25733,-1.83475 -1.35449,-2.69778 -0.84031,-0.66099 -1.88223,-1.2018 -2.31536,-1.2018 -0.43313,0 -1.07386,0.62848 -1.42385,1.39662 -0.51143,1.12246 -0.44644,1.68645 0.33111,2.87314 0.7644,1.16662 1.34755,1.43972 2.77835,1.30116 z m 55.36892,0.10861 51.22943,0 0,-2.83977 0,-2.83976 -52.10976,0.0227 c -46.52163,0.0203 -51.94226,0.11361 -50.54788,0.87008 0.99571,0.54018 1.56187,1.31427 1.56187,2.13548 0,0.70848 -0.30669,1.59485 -0.68154,1.9697 -0.53009,0.53009 10.70277,0.68154 50.54788,0.68154 z m 53.21727,0 c 0.64366,0 0.85193,-0.69416 0.85193,-2.83977 0,-2.1456 -0.20827,-2.83976 -0.85193,-2.83976 -0.64367,0 -0.85193,0.69416 -0.85193,2.83976 0,2.14561 0.20826,2.83977 0.85193,2.83977 z m 9.97974,0 c 4.6838,0 5.07103,-0.0811 4.25965,-0.8925 -0.49088,-0.49087 -0.89248,-1.23906 -0.89248,-1.66264 0,-0.42357 0.67342,-1.29984 1.4965,-1.94726 l 1.49644,-1.17713 -5.75609,0 -5.75616,0 0,2.83976 0,2.83977 5.15214,0 z m 10.58018,0 c 1.70386,0 1.87425,-0.15489 1.87425,-1.70386 0,-0.94659 -0.50486,-2.20871 -1.13591,-2.83977 -0.62475,-0.62475 -1.46816,-1.1359 -1.87425,-1.1359 -0.40608,0 -1.04503,0.30669 -1.41988,0.68154 -0.37485,0.37485 -0.68155,1.34605 -0.68155,2.15822 0,0.81218 0.3067,1.78338 0.68155,2.15823 0.37485,0.37485 1.52495,0.68154 2.55579,0.68154 z m 52.61807,0 48.6481,0 0,-2.83977 0,-2.83976 -49.20463,0 -49.20456,0 1.49644,1.17713 c 0.82308,0.64742 1.4965,1.45793 1.4965,1.80112 0,0.3432 -0.42295,1.09139 -0.93996,1.66264 -0.90992,1.00545 0.61464,1.03864 47.70811,1.03864 z m 50.63594,0 c 0.64366,0 0.85193,-0.69416 0.85193,-2.83977 0,-2.1456 -0.20827,-2.83976 -0.85193,-2.83976 -0.64366,0 -0.85193,0.69416 -0.85193,2.83976 0,2.14561 0.20827,2.83977 0.85193,2.83977 z m -693.686381,-1.1359 c 0.28354,0 1.02198,-0.83064 1.64097,-1.84585 0.61899,-1.01522 1.12639,-2.03754 1.12756,-2.27182 0.001,-0.23428 -0.89241,-0.42596 -1.98572,-0.42596 -1.72379,0 -1.98784,0.18243 -1.98784,1.37343 0,0.75539 0.15514,1.7777 0.34475,2.27181 0.1896,0.49412 0.57673,0.89839 0.86028,0.89839 z m 16.74105,-2.65569 c 0.43802,-0.16809 0.7964,-0.66164 0.7964,-1.09678 0,-0.43514 -0.51116,-0.79116 -1.13591,-0.79116 -0.62475,0 -1.13591,0.34077 -1.13591,0.75727 0,0.4165 0.15278,0.91004 0.33951,1.09677 0.18672,0.18673 0.69788,0.20198 1.13591,0.0339 z M 29.549429,594.255 c 1.88249,0 2.31561,-0.21764 2.58729,-1.30006 0.17946,-0.71504 0.05,-2.02667 -0.2876,-2.91473 -0.606,-1.59391 -0.62905,-1.60094 -1.79351,-0.54713 -0.64878,0.58715 -1.53681,1.75829 -1.97339,2.60255 -0.43658,0.84425 -0.79379,1.67549 -0.79379,1.84719 0,0.1717 1.01745,0.31218 2.261,0.31218 z m 15.34557,0 c 0.63106,0 1.13591,-0.37864 1.13591,-0.85193 0,-0.46856 -0.10689,-0.85193 -0.23753,-0.85193 -0.13064,0 -0.6418,0.15513 -1.1359,0.34474 -0.49412,0.18961 -0.89839,0.57297 -0.89839,0.85193 0,0.27895 0.51116,0.50719 1.13591,0.50719 z m 43.73244,0 c 0.31237,0 0.56795,-0.27067 0.56795,-0.60148 0,-0.33081 -0.25558,-0.44351 -0.56795,-0.25045 -0.31238,0.19306 -0.56796,0.46372 -0.56796,0.60147 0,0.13775 0.25558,0.25046 0.56796,0.25046 z m 41.282901,0 2.66205,0 -1.66813,-1.75274 c -0.91747,-0.96401 -2.1154,-1.99531 -2.66205,-2.2918 -0.87144,-0.47263 -0.99392,-0.25664 -0.99392,1.75274 l 0,2.2918 2.66205,0 z m 158.40016,-0.0449 c 0.66164,-0.0273 0.79621,-0.16183 0.34314,-0.34314 -0.41,-0.16407 -0.89986,-0.14389 -1.08858,0.0449 -0.18873,0.18872 0.14672,0.32296 0.74544,0.2983 z m 7.50645,0.0449 6.36109,0 0,-1.41989 c 0,-0.78093 -0.31948,-1.4204 -0.70995,-1.42103 -0.39046,-5.7e-4 -3.01015,0.41233 -5.82152,0.9177 -2.81137,0.50538 -5.35439,1.14484 -5.65114,1.42104 -0.31498,0.29316 2.10809,0.50218 5.82152,0.50218 z m 91.36483,0 17.22793,0 0,-3.34174 0,-3.34174 -4.11767,0.78528 c -2.26471,0.4319 -4.30935,0.78558 -4.54363,0.78594 -0.23428,3.7e-4 -0.42596,-0.87663 -0.42596,-1.94889 0,-1.36739 0.2968,-2.03634 0.99392,-2.24015 0.54665,-0.15982 2.51044,-0.56041 4.36396,-0.89021 1.85352,-0.32978 3.45089,-0.59961 3.54971,-0.59961 0.0988,0 0.17967,-0.51603 0.17967,-1.14673 0,-0.90115 -0.27366,-1.08125 -1.2779,-0.84098 -0.70284,0.16816 -8.50726,1.70651 -17.34316,3.41854 -8.8359,1.71204 -16.1838,3.1128 -16.32867,3.1128 -0.14487,0 -0.2634,1.2353 -0.2634,2.74511 0,1.50981 0.17038,2.91549 0.37864,3.12374 0.20824,0.20825 8.1312,0.37864 17.60656,0.37864 z m -164.0913,-0.8946 c 0.85903,-0.16404 5.26692,-1.00203 9.7953,-1.8622 6.5123,-1.23702 8.27222,-1.76534 8.41897,-2.52732 0.10726,-0.55695 -0.17058,-0.96337 -0.65858,-0.96337 -0.46426,0 -4.85011,0.76673 -9.74633,1.70386 -4.89622,0.93712 -9.00774,1.70386 -9.13672,1.70386 -0.12898,0 -0.23451,0.50477 -0.23451,1.12171 0,0.91735 0.28455,1.06737 1.56187,0.82346 z m 57.6473,-2.30249 c 2.26472,-0.43632 5.07609,-0.95045 6.24749,-1.14252 1.57838,-0.25878 2.12983,-0.62451 2.12983,-1.41252 0,-0.58482 -0.19168,-1.06327 -0.42596,-1.06322 -0.23429,6e-5 -2.4706,0.38167 -4.9696,0.84804 -2.499,0.46637 -5.11868,0.98236 -5.82153,1.14663 -0.76158,0.17801 -1.27789,0.7266 -1.27789,1.3578 0,1.00906 0.19456,1.02161 4.11766,0.26579 z m 9.45049,-1.9145 c 0.27786,0 2.64197,-0.39617 5.25357,-0.88037 2.6116,-0.4842 5.19562,-1.01259 5.74228,-1.17417 0.54665,-0.1616 0.99392,-0.65996 0.99392,-1.10747 0,-0.44751 -0.43256,-0.81366 -0.96124,-0.81366 -0.52869,0 -3.34006,0.4249 -6.24749,0.94422 -4.40923,0.78756 -5.28626,1.11735 -5.28626,1.98783 0,0.574 0.22735,1.04362 0.50522,1.04362 z M 277.5724,585.1464 c 0.56955,-0.0118 3.33273,-0.46141 6.14039,-0.99926 3.91861,-0.75067 5.14907,-1.20763 5.29522,-1.96649 0.12571,-0.6528 -0.16137,-0.98133 -0.84519,-0.96724 -0.56955,0.0118 -3.33273,0.4614 -6.14039,0.99925 -3.91861,0.75067 -5.14907,1.20763 -5.29522,1.96649 -0.12571,0.6528 0.16137,0.98134 0.84519,0.96725 z m 12.25377,-2.25048 c 0.0787,0 2.79999,-0.50626 6.0473,-1.12503 3.24729,-0.61877 6.02584,-1.24669 6.17453,-1.39539 0.1487,-0.14869 0.12068,-0.66044 -0.0623,-1.1372 -0.18295,-0.47677 -0.66179,-0.7652 -1.06408,-0.64095 -0.40229,0.12425 -3.09555,0.66281 -5.98501,1.19679 -4.4141,0.81575 -5.25357,1.14113 -5.25357,2.03634 0,0.58599 0.0644,1.06544 0.14311,1.06544 z M 27.856389,641.96311 c -1.2495,0 -2.27182,-0.25558 -2.27182,-0.56795 0,-0.31238 0.25558,-0.56796 0.56796,-0.56796 0.31237,0 0.56795,-1.00101 0.56795,-2.22448 0,-1.22347 -0.30083,-2.32476 -0.66851,-2.44732 -0.36768,-0.12257 -0.48039,-0.52723 -0.25046,-0.89927 0.22993,-0.37203 0.91413,-0.67642 1.52044,-0.67642 0.9576,0 1.10239,0.4103 1.10239,3.12375 0,2.39802 0.19793,3.12374 0.85193,3.12374 0.46856,0 0.85193,0.25558 0.85193,0.56796 0,0.31237 -1.02231,0.56795 -2.27181,0.56795 z M 471.9962,590.84728 c -0.34952,0 -0.56795,-2.84073 -0.56795,-7.38627 l 0,-7.38627 54.09759,0.14486 c 35.58986,0.0953 54.09759,0.33916 54.09759,0.71281 0,0.37359 -18.31844,0.61754 -53.52964,0.71284 l -53.52963,0.14488 0,6.52857 c 0,3.97375 -0.22226,6.52858 -0.56796,6.52858 z m 129.19249,0 c -0.74277,0 -0.84579,-1.05112 -0.70994,-7.24141 l 0.15897,-7.24141 51.82578,-0.14498 c 45.83347,-0.12822 51.82578,-0.0461 51.82578,0.70994 0,0.75493 -5.97879,0.85492 -51.11584,0.85492 l -51.11583,0 0,6.53147 c 0,5.4838 -0.13938,6.53147 -0.86892,6.53147 z m -118.71886,-3.40776 c -1.07488,0 -1.95432,-0.25558 -1.95432,-0.56795 0,-0.31237 0.25558,-0.56795 0.56795,-0.56795 0.31238,0 0.56796,-1.02232 0.56796,-2.27182 0,-1.2495 -0.25558,-2.27181 -0.56796,-2.27181 -0.31237,0 -0.56795,-0.38337 -0.56795,-0.85193 0,-0.53009 0.5364,-0.85193 1.41988,-0.85193 1.34244,0 1.41989,0.17038 1.41989,3.12374 0,2.45058 0.19081,3.12375 0.88545,3.12375 0.487,0 0.72749,0.25558 0.53443,0.56795 -0.19306,0.31237 -1.23046,0.56795 -2.30533,0.56795 z m 6.28101,0 c -0.46857,0 -0.85193,-0.38337 -0.85193,-0.85193 0,-0.46856 0.38336,-0.85193 0.85193,-0.85193 0.46856,0 0.85193,0.38337 0.85193,0.85193 0,0.46856 -0.38337,0.85193 -0.85193,0.85193 z m 122.64449,0 c -1.07491,0 -1.95433,-0.28258 -1.95433,-0.62795 0,-0.34538 0.64952,-1.39987 1.4434,-2.34332 0.79383,-0.94344 1.34304,-2.00265 1.22042,-2.3538 -0.12268,-0.35114 -0.77219,-0.61815 -1.4434,-0.59334 -0.68603,0.0253 -1.22042,-0.30129 -1.22042,-0.74593 0,-0.54628 0.55336,-0.73596 1.7886,-0.61305 0.9837,0.0979 2.04736,0.59159 2.36371,1.09712 0.42835,0.68451 0.26172,1.35932 -0.65269,2.64347 -0.6753,0.94837 -1.2278,1.87654 -1.2278,2.06261 0,0.18606 0.52626,0.33829 1.16942,0.33829 0.6432,0 1.01146,0.25558 0.81842,0.56795 -0.19305,0.31237 -1.23048,0.56795 -2.30533,0.56795 z m 6.65966,0 c -0.26035,0 -0.64372,-0.17038 -0.85193,-0.37863 -0.20827,-0.20825 -0.37866,-0.59162 -0.37866,-0.85193 0,-0.26031 0.38337,-0.4733 0.85193,-0.4733 0.46856,0 0.85193,0.38337 0.85193,0.85193 0,0.46856 -0.21298,0.85193 -0.47327,0.85193 z"
       id="path4954"
       inkscape:connector-curvature="0" />
    <rect
       style="fill:none;stroke:#000000;stroke-width:0.80000001;stroke-miterlimit:4;stroke-opacity:1;stroke-dasharray:2.4, 2.4;stroke-dashoffset:0.15999999"
       id="rect4958"
       width="19.34201"
       height="99.359436"
       x="77.303429"
       y="560.74243" />
    <rect
       style="fill:none;stroke:#000000;stroke-width:0.80000001;stroke-miterlimit:4;stroke-opacity:1;stroke-dasharray:2.4, 2.4;stroke-dashoffset:0.15999999"
       id="rect5865"
       width="17.67767"
       height="25.253813"
       x="118.69292"
       y="578.09558" />
    <rect
       style="fill:none;stroke:#000000;stroke-width:0.80000001;stroke-miterlimit:4;stroke-opacity:1;stroke-dasharray:2.4, 2.4;stroke-dashoffset:0.15999999"
       id="rect5867"
       width="13.637059"
       height="22.223356"
       x="146.47212"
       y="597.79352" />
    <rect
       style="fill:none;stroke:#000000;stroke-width:0.80000001;stroke-miterlimit:4;stroke-opacity:1;stroke-dasharray:2.4, 2.4;stroke-dashoffset:0.15999999"
       id="rect5869"
       width="14.647231"
       height="33.840149"
       x="257.5889"
       y="591.73267" />
    <rect
       style="fill:none;stroke:#000000;stroke-width:0.80000001;stroke-miterlimit:4;stroke-opacity:1;stroke-dasharray:2.4, 2.4;stroke-dashoffset:0.15999999"
       id="rect5871"
       width="42.931484"
       height="22.728432"
       x="208.5965"
       y="576.58032" />
    <rect
       style="fill:none;stroke:#000000;stroke-width:0.80000001;stroke-miterlimit:4;stroke-opacity:1;stroke-dasharray:2.4, 2.4;stroke-dashoffset:0.15999999"
       id="rect5873"
       width="42.931496"
       height="29.79953"
       x="268.70059"
       y="568.49908" />
    <rect
       style="fill:none;stroke:#000000;stroke-width:0.80000001;stroke-miterlimit:4;stroke-opacity:1;stroke-dasharray:2.4, 2.4;stroke-dashoffset:0.15999999"
       id="rect5875"
       width="20"
       height="42.857143"
       x="40"
       y="578.79077" />
    <rect
       style="fill:none;stroke:#000000;stroke-width:0.80000001;stroke-miterlimit:4;stroke-opacity:1;stroke-dasharray:2.4, 2.4;stroke-dashoffset:0.15999999"
       id="rect5877"
       width="22.142857"
       height="60.714046"
       x="15"
       y="573.79071" />
    <rect
       style="fill:none;stroke:#000000;stroke-width:0.80000001;stroke-miterlimit:4;stroke-opacity:1;stroke-dasharray:2.4, 2.4;stroke-dashoffset:0.15999999"
       id="rect5879"
       width="7.8571429"
       height="25"
       x="172.85715"
       y="630.93359" />
    <rect
       style="fill:none;stroke:#000000;stroke-width:0.80000001;stroke-miterlimit:4;stroke-opacity:1;stroke-dasharray:2.4, 2.4;stroke-dashoffset:0.15999999"
       id="rect5881"
       width="126.42857"
       height="22.857143"
       x="459.28571"
       y="567.36218" />
    <rect
       style="fill:none;stroke:#000000;stroke-width:0.80000001;stroke-miterlimit:4;stroke-opacity:1;stroke-dasharray:2.4, 2.4;stroke-dashoffset:0.15999999"
       id="rect5883"
       width="117.14286"
       height="25.714285"
       x="597.14288"
       y="565.93359" />
    <rect
       style="fill:none;stroke:#000000;stroke-width:0.80000001;stroke-miterlimit:4;stroke-opacity:1;stroke-dasharray:2.4, 2.4;stroke-dashoffset:0.15999999"
       id="rect5885"
       width="20.714285"
       height="42.142857"
       x="583.57141"
       y="591.64789" />
    <path
       style="fill:none;stroke:#000000;stroke-width:0.80000001;stroke-linecap:butt;stroke-linejoin:miter;stroke-miterlimit:4;stroke-opacity:1;stroke-dasharray:none;marker-end:url(#Arrow1Mend)"
       d="m 22.728432,694.76818 0.505077,-58.58885"
       id="path5927"
       inkscape:connector-curvature="0" />
    <path
       style="fill:none;stroke:#000000;stroke-width:0.80000001;stroke-linecap:butt;stroke-linejoin:miter;stroke-miterlimit:4;stroke-opacity:1;stroke-dasharray:none;marker-end:url(#Arrow1Mend)"
       d="M 87.883271,693.25295 87.378195,663.95853"
       id="path5931"
       inkscape:connector-curvature="0" />
    <path
       style="fill:none;stroke:#000000;stroke-width:0.80000001;stroke-linecap:butt;stroke-linejoin:miter;stroke-miterlimit:4;stroke-opacity:1;stroke-dasharray:none;marker-end:url(#Arrow1Mend)"
       d="m 176.7767,692.2428 -0.50508,-34.34519"
       id="path5933"
       inkscape:connector-curvature="0" />
    <path
       style="fill:none;stroke:#000000;stroke-width:0.80000001;stroke-linecap:butt;stroke-linejoin:miter;stroke-miterlimit:4;stroke-opacity:1;stroke-dasharray:none;marker-end:url(#Arrow1Mend)"
       d="m 126.77414,534.15393 0,41.92133"
       id="path5935"
       inkscape:connector-curvature="0" />
    <path
       style="fill:none;stroke:#000000;stroke-width:0.80000001;stroke-linecap:butt;stroke-linejoin:miter;stroke-miterlimit:4;stroke-opacity:1;stroke-dasharray:none;marker-end:url(#Arrow1Mend)"
       d="m 153.54319,559.40774 0.50507,39.90103"
       id="path5937"
       inkscape:connector-curvature="0" />
    <path
       style="fill:none;stroke:#000000;stroke-width:0.80000001;stroke-linecap:butt;stroke-linejoin:miter;stroke-miterlimit:4;stroke-opacity:1;stroke-dasharray:none;marker-end:url(#Arrow1Mend)"
       d="m 168.1904,553.8519 95.96449,0 0.50508,35.35534"
       id="path5939"
       inkscape:connector-curvature="0" />
    <path
       style="fill:none;stroke:#000000;stroke-width:0.80000001;stroke-linecap:butt;stroke-linejoin:miter;stroke-miterlimit:4;stroke-opacity:1;stroke-dasharray:none;marker-end:url(#Arrow1Mend)"
       d="m 274.76149,684.16158 -42.93148,-0.50508 -2.52538,-77.78174"
       id="path5941"
       inkscape:connector-curvature="0" />
    <path
       style="fill:none;stroke:#000000;stroke-width:0.80000001;stroke-linecap:butt;stroke-linejoin:miter;stroke-miterlimit:4;stroke-opacity:1;stroke-dasharray:none;marker-end:url(#Arrow1Mend)"
       d="m 308.6016,677.09051 -1.01015,-74.75129"
       id="path5943"
       inkscape:connector-curvature="0" />
    <path
       style="fill:none;stroke:#000000;stroke-width:0.80000001;stroke-linecap:butt;stroke-linejoin:miter;stroke-miterlimit:4;stroke-opacity:1;stroke-dasharray:none;marker-end:url(#Arrow1Mend)"
       d="m 525.7844,542.23515 0.50508,20.70812"
       id="path6129"
       inkscape:connector-curvature="0" />
    <path
       style="fill:none;stroke:#000000;stroke-width:0.80000001;stroke-linecap:butt;stroke-linejoin:miter;stroke-miterlimit:4;stroke-opacity:1;stroke-dasharray:none;marker-end:url(#Arrow1Mend)"
       d="m 561.13974,540.21484 95.45941,0.50508 1.01016,20.20305"
       id="path6131"
       inkscape:connector-curvature="0" />
    <path
       style="fill:none;stroke:#000000;stroke-width:0.80000001;stroke-linecap:butt;stroke-linejoin:miter;stroke-miterlimit:4;stroke-opacity:1;stroke-dasharray:none;marker-end:url(#Arrow1Mend)"
       d="m 596.49508,669.00929 -1.51523,-32.32488"
       id="path6133"
       inkscape:connector-curvature="0" />
    <path
       style="fill:none;stroke:#000000;stroke-width:0.80000001;stroke-linecap:butt;stroke-linejoin:miter;stroke-miterlimit:4;stroke-opacity:1;stroke-dasharray:none;marker-end:url(#Arrow1Mend)"
       d="m 50.714286,541.6479 0,33.57142"
       id="path6343"
       inkscape:connector-curvature="0" />
    <text
       xml:space="preserve"
       style="font-size:11px;font-style:normal;font-variant:normal;font-weight:normal;font-stretch:normal;line-height:125%;letter-spacing:0px;word-spacing:0px;fill:#000000;fill-opacity:1;stroke:none;font-family:DejaVu Serif;-inkscape-font-specification:DejaVu Serif"
       x="12.857143"
       y="710.57648"
       id="text6529"
       sodipodi:linespacing="125%"><tspan
         sodipodi:role="line"
         id="tspan6531"
         x="12.857143"
         y="710.57648">Clef</tspan></text>
    <text
       xml:space="preserve"
       style="font-size:11px;font-style:normal;font-variant:normal;font-weight:normal;font-stretch:normal;line-height:125%;letter-spacing:0px;word-spacing:0px;fill:#000000;fill-opacity:1;stroke:none;font-family:DejaVu Serif;-inkscape-font-specification:DejaVu Serif"
       x="73.571426"
       y="704.50507"
       id="text6533"
       sodipodi:linespacing="125%"><tspan
         sodipodi:role="line"
         id="tspan6535"
         x="73.571426"
         y="704.50507">Notes</tspan></text>
    <text
       xml:space="preserve"
       style="font-size:11px;font-style:normal;font-weight:normal;line-height:125%;letter-spacing:0px;word-spacing:0px;fill:#000000;fill-opacity:1;stroke:none;font-family:Sans"
       x="164.28571"
       y="702.00507"
       id="text6537"
       sodipodi:linespacing="125%"><tspan
         sodipodi:role="line"
         id="tspan6539"
         x="164.28571"
         y="702.00507"
         style="font-style:normal;font-variant:normal;font-weight:normal;font-stretch:normal;font-family:DejaVu Serif;-inkscape-font-specification:DejaVu Serif">Stem</tspan></text>
    <text
       xml:space="preserve"
       style="font-size:11px;font-style:normal;font-variant:normal;font-weight:normal;font-stretch:normal;line-height:125%;letter-spacing:0px;word-spacing:0px;fill:#000000;fill-opacity:1;stroke:none;font-family:DejaVu Serif;-inkscape-font-specification:DejaVu Serif"
       x="280"
       y="690.2193"
       id="text6541"
       sodipodi:linespacing="125%"><tspan
         sodipodi:role="line"
         id="tspan6543"
         x="280"
         y="690.2193">Beams</tspan></text>
    <text
       xml:space="preserve"
       style="font-size:11px;font-style:normal;font-variant:normal;font-weight:normal;font-stretch:normal;line-height:125%;letter-spacing:0px;word-spacing:0px;fill:#000000;fill-opacity:1;stroke:none;font-family:DejaVu Serif;-inkscape-font-specification:DejaVu Serif"
       x="570"
       y="681.29077"
       id="text6545"
       sodipodi:linespacing="125%"><tspan
         sodipodi:role="line"
         id="tspan6547"
         x="570"
         y="681.29077">Repeat</tspan></text>
    <text
       xml:space="preserve"
       style="font-size:11px;font-style:normal;font-variant:normal;font-weight:normal;font-stretch:normal;line-height:125%;letter-spacing:0px;word-spacing:0px;fill:#000000;fill-opacity:1;stroke:none;font-family:DejaVu Serif;-inkscape-font-specification:DejaVu Serif"
       x="515"
       y="540.2193"
       id="text6549"
       sodipodi:linespacing="125%"><tspan
         sodipodi:role="line"
         id="tspan6551"
         x="515"
         y="540.2193">Endings</tspan></text>
    <text
       xml:space="preserve"
       style="font-size:11px;font-style:normal;font-variant:normal;font-weight:normal;font-stretch:normal;line-height:125%;letter-spacing:0px;word-spacing:0px;fill:#000000;fill-opacity:1;stroke:none;font-family:DejaVu Serif;-inkscape-font-specification:DejaVu Serif"
       x="19.285713"
       y="538.79077"
       id="text6553"
       sodipodi:linespacing="125%"><tspan
         sodipodi:role="line"
         id="tspan6555"
         x="19.285713"
         y="538.79077">Key signature</tspan></text>
    <text
       xml:space="preserve"
       style="font-size:11px;font-style:normal;font-variant:normal;font-weight:normal;font-stretch:normal;line-height:125%;letter-spacing:0px;word-spacing:0px;fill:#000000;fill-opacity:1;stroke:none;font-family:DejaVu Serif;-inkscape-font-specification:DejaVu Serif"
       x="110.71429"
       y="531.29077"
       id="text6557"
       sodipodi:linespacing="125%"><tspan
         sodipodi:role="line"
         id="tspan6559"
         x="110.71429"
         y="531.29077">Tail</tspan></text>
    <text
       xml:space="preserve"
       style="font-size:11px;font-style:normal;font-variant:normal;font-weight:normal;font-stretch:normal;line-height:125%;letter-spacing:0px;word-spacing:0px;fill:#000000;fill-opacity:1;stroke:none;font-family:DejaVu Serif;-inkscape-font-specification:DejaVu Serif"
       x="137.85715"
       y="556.64789"
       id="text6561"
       sodipodi:linespacing="125%"><tspan
         sodipodi:role="line"
         id="tspan6563"
         x="137.85715"
         y="556.64789">Rests</tspan></text>
    <rect
       style="fill:none;stroke:#000000;stroke-width:0.80000001;stroke-miterlimit:4;stroke-opacity:1;stroke-dasharray:2.4, 2.4;stroke-dashoffset:0.15999999"
       id="rect5873-2"
       width="66.569389"
       height="4.2135115"
       x="331.88364"
       y="620.6051" />
    <rect
       style="fill:none;stroke:#000000;stroke-width:0.80000001;stroke-miterlimit:4;stroke-opacity:1;stroke-dasharray:2.4, 2.4;stroke-dashoffset:0.15999999"
       id="rect5873-2-4"
       width="66.640152"
       height="2.7690434"
       x="403.47372"
       y="618.1452" />
    <rect
       style="fill:none;stroke:#000000;stroke-width:0.80000001;stroke-miterlimit:4;stroke-opacity:1;stroke-dasharray:2.4, 2.4;stroke-dashoffset:0.15999999"
       id="rect5871-1"
       width="15.043947"
       height="22.698036"
       x="175.87088"
       y="596.90601" />
    <path
       style="fill:none;stroke:#000000;stroke-width:0.80000001;stroke-linecap:butt;stroke-linejoin:miter;stroke-miterlimit:4;stroke-opacity:1;stroke-dasharray:none;marker-end:url(#Arrow1Mend)"
       d="m 165,558.79075 17.85714,0 0.71429,34.28572"
       id="path6631"
       inkscape:connector-curvature="0" />
    <path
       style="fill:none;stroke:#000000;stroke-width:0.80000001;stroke-linecap:butt;stroke-linejoin:miter;stroke-miterlimit:4;stroke-opacity:1;stroke-dasharray:none;marker-end:url(#Arrow1Mend)"
       d="m 362.85714,668.07647 0,-40.71429"
       id="path6633"
       inkscape:connector-curvature="0" />
    <path
       style="fill:none;stroke:#000000;stroke-width:0.80000001;stroke-linecap:butt;stroke-linejoin:miter;stroke-miterlimit:4;stroke-opacity:1;stroke-dasharray:none;marker-end:url(#Arrow1Mend)"
       d="M 438.57143,668.07647 437.85714,621.6479"
       id="path6635"
       inkscape:connector-curvature="0" />
    <text
       xml:space="preserve"
       style="font-size:11px;font-style:normal;font-variant:normal;font-weight:normal;font-stretch:normal;line-height:125%;letter-spacing:0px;word-spacing:0px;fill:#000000;fill-opacity:1;stroke:none;font-family:DejaVu Serif;-inkscape-font-specification:DejaVu Serif"
       x="344.22214"
       y="677.72241"
       id="text6541-4"
       sodipodi:linespacing="125%"><tspan
         sodipodi:role="line"
         id="tspan6543-8"
         x="344.22214"
         y="677.72241">Staff line</tspan></text>
    <text
       xml:space="preserve"
       style="font-size:11px;font-style:normal;font-variant:normal;font-weight:normal;font-stretch:normal;line-height:125%;letter-spacing:0px;word-spacing:0px;fill:#000000;fill-opacity:1;stroke:none;font-family:DejaVu Serif;-inkscape-font-specification:DejaVu Serif"
       x="420.6507"
       y="677.00806"
       id="text6541-41"
       sodipodi:linespacing="125%"><tspan
         sodipodi:role="line"
         id="tspan6543-5"
         x="420.6507"
         y="677.00806">Staff space</tspan></text>
  </g>
</svg>
